<svg width="20" height="15" viewBox="0 0 20 15" fill="none" xmlns="http://www.w3.org/2000/svg">
<path d="M2 6.5C2.55228 6.5 3 6.94772 3 7.5C3 8.05228 2.55228 8.5 2 8.5L2 6.5ZM0.292893 8.20711C-0.0976309 7.81658 -0.097631 7.18342 0.292893 6.79289L6.65685 0.428932C7.04738 0.0384074 7.68054 0.0384073 8.07107 0.428932C8.46159 0.819456 8.46159 1.45262 8.07107 1.84315L2.41421 7.5L8.07107 13.1569C8.46159 13.5474 8.46159 14.1805 8.07107 14.5711C7.68054 14.9616 7.04738 14.9616 6.65685 14.5711L0.292893 8.20711ZM2 7.5L2 8.5L1 8.5L1 7.5L1 6.5L2 6.5L2 7.5Z" fill="#00BA03"/>
<path d="M18 6.5C17.4477 6.5 17 6.94772 17 7.5C17 8.05228 17.4477 8.5 18 8.5L18 6.5ZM19.7071 8.20711C20.0976 7.81658 20.0976 7.18342 19.7071 6.79289L13.3431 0.428932C12.9526 0.0384074 12.3195 0.0384073 11.9289 0.428932C11.5384 0.819456 11.5384 1.45262 11.9289 1.84315L17.5858 7.5L11.9289 13.1569C11.5384 13.5474 11.5384 14.1805 11.9289 14.5711C12.3195 14.9616 12.9526 14.9616 13.3431 14.5711L19.7071 8.20711ZM18 7.5L18 8.5L19 8.5L19 7.5L19 6.5L18 6.5L18 7.5Z" fill="#00BA03"/>
</svg>
