<svg width="48" height="48" viewBox="0 0 48 48" fill="none" xmlns="http://www.w3.org/2000/svg">
<path d="M24 4.80005C22.0905 4.80005 20.2591 5.55862 18.9089 6.90888C17.5586 8.25914 16.8 10.0905 16.8 12C16.8 13.9096 17.5586 15.741 18.9089 17.0912C20.2591 18.4415 22.0905 19.2 24 19.2C25.9096 19.2 27.7409 18.4415 29.0912 17.0912C30.4415 15.741 31.2 13.9096 31.2 12C31.2 10.0905 30.4415 8.25914 29.0912 6.90888C27.7409 5.55862 25.9096 4.80005 24 4.80005ZM12.1272 23.9904C12.0456 24.3808 12.0048 24.784 12.0048 25.2001V33.6C12.0033 35.3424 12.3819 37.0642 13.1144 38.6452C13.8468 40.2261 14.9154 41.6282 16.2456 42.7536L15.8352 42.8736C14.6174 43.2003 13.3472 43.2839 12.097 43.1196C10.8469 42.9553 9.64139 42.5463 8.54933 41.916C7.45728 41.2858 6.50008 40.4465 5.73241 39.4463C4.96474 38.446 4.40163 37.3044 4.07524 36.0865L2.52244 30.2905C2.40014 29.8338 2.36899 29.3575 2.43077 28.8887C2.49255 28.42 2.64605 27.968 2.88251 27.5586C3.11897 27.1493 3.43375 26.7904 3.80888 26.5027C4.18402 26.215 4.61215 26.0039 5.06884 25.8817L12.1272 23.9904ZM31.764 42.7536C33.0942 41.6282 34.1628 40.2261 34.8953 38.6452C35.6278 37.0642 36.0064 35.3424 36.0048 33.6V25.2001C36.0032 24.784 35.9632 24.3808 35.8848 23.9904L42.9408 25.8817C43.8627 26.1291 44.6486 26.7326 45.1257 27.5593C45.6027 28.3861 45.7319 29.3685 45.4848 30.2905L43.932 36.0865C43.5963 37.3388 43.0103 38.5102 42.2095 39.53C41.4087 40.5497 40.4096 41.3967 39.2725 42.0197C38.1354 42.6428 36.8838 43.029 35.5934 43.1552C34.3029 43.2813 33.0003 43.1447 31.764 42.7536ZM39.6 9.60005C38.0087 9.60005 36.4826 10.2322 35.3574 11.3574C34.2322 12.4826 33.6 14.0087 33.6 15.6C33.6 17.1913 34.2322 18.7175 35.3574 19.8427C36.4826 20.9679 38.0087 21.6 39.6 21.6C41.1913 21.6 42.7175 20.9679 43.8427 19.8427C44.9679 18.7175 45.6 17.1913 45.6 15.6C45.6 14.0087 44.9679 12.4826 43.8427 11.3574C42.7175 10.2322 41.1913 9.60005 39.6 9.60005ZM8.40004 9.60005C6.80874 9.60005 5.28262 10.2322 4.1574 11.3574C3.03219 12.4826 2.40004 14.0087 2.40004 15.6C2.40004 17.1913 3.03219 18.7175 4.1574 19.8427C5.28262 20.9679 6.80874 21.6 8.40004 21.6C9.99134 21.6 11.5175 20.9679 12.6427 19.8427C13.7679 18.7175 14.4 17.1913 14.4 15.6C14.4 14.0087 13.7679 12.4826 12.6427 11.3574C11.5175 10.2322 9.99134 9.60005 8.40004 9.60005ZM18 21.6C17.0453 21.6 16.1296 21.9793 15.4545 22.6545C14.7793 23.3296 14.4 24.2453 14.4 25.2001V33.6C14.4 36.1461 15.4115 38.5879 17.2118 40.3883C19.0122 42.1886 21.454 43.2001 24 43.2001C26.5461 43.2001 28.9879 42.1886 30.7883 40.3883C32.5886 38.5879 33.6 36.1461 33.6 33.6V25.2001C33.6 24.2453 33.2208 23.3296 32.5456 22.6545C31.8705 21.9793 30.9548 21.6 30 21.6H18Z" fill="white"/>
</svg>
