<svg width="48" height="48" viewBox="0 0 48 48" fill="none" xmlns="http://www.w3.org/2000/svg">
<g clip-path="url(#clip0_77_17)">
<path d="M24 0C37.256 0 48 10.744 48 24V44C48 46.194 46.194 48 44 48H29L28.998 47.662C28.9 41.874 26.304 37.858 21.58 35.742L48 24L47.36 23.782C41.644 21.7847 36.8573 18.8573 33 15C29.1427 11.1427 26.2153 6.35533 24.218 0.638L24 0ZM24 0L8 36C8 37.3333 8.33333 38.3333 9 39C9.668 39.6667 10.668 40 12 40L12.374 40.002C19.916 40.082 23 42.592 23 48H4C1.806 48 0 46.194 0 44V4C0 1.806 1.806 0 4 0H24ZM38.414 9.586C36.852 8.024 34.954 7.392 34.172 8.172C33.392 8.952 34.024 10.852 35.586 12.414C37.148 13.976 39.048 14.61 39.828 13.828C40.61 13.048 39.976 11.148 38.414 9.586Z" fill="white"/>
</g>
<defs>
<clipPath id="clip0_77_17">
<rect width="48" height="48" fill="white"/>
</clipPath>
</defs>
</svg>
