<svg width="50" height="50" viewBox="0 0 50 50" fill="none" xmlns="http://www.w3.org/2000/svg">
<path d="M25.0001 5C23.011 5 21.1034 5.79018 19.6968 7.1967C18.2903 8.60322 17.5001 10.5109 17.5001 12.5C17.5001 14.4891 18.2903 16.3968 19.6968 17.8033C21.1034 19.2098 23.011 20 25.0001 20C26.9893 20 28.8969 19.2098 30.3034 17.8033C31.71 16.3968 32.5001 14.4891 32.5001 12.5C32.5001 10.5109 31.71 8.60322 30.3034 7.1967C28.8969 5.79018 26.9893 5 25.0001 5ZM12.6326 24.99C12.5476 25.3967 12.5051 25.8167 12.5051 26.25V35C12.5035 36.815 12.8979 38.6085 13.6609 40.2553C14.4239 41.9022 15.537 43.3627 16.9226 44.535L16.4951 44.66C15.2266 45.0003 13.9034 45.0873 12.6012 44.9162C11.299 44.745 10.0432 44.319 8.90566 43.6625C7.7681 43.006 6.77102 42.1318 5.97136 41.0898C5.1717 40.0479 4.58513 38.8587 4.24515 37.59L2.62765 31.5525C2.50025 31.0768 2.4678 30.5806 2.53216 30.0924C2.59651 29.6041 2.75641 29.1333 3.00272 28.7069C3.24903 28.2804 3.57692 27.9067 3.96769 27.6069C4.35845 27.3072 4.80443 27.0874 5.28015 26.96L12.6326 24.99ZM41.2501 10C39.5925 10 38.0028 10.6585 36.8307 11.8306C35.6586 13.0027 35.0001 14.5924 35.0001 16.25C35.0001 17.9076 35.6586 19.4973 36.8307 20.6694C38.0028 21.8415 39.5925 22.5 41.2501 22.5C42.9077 22.5 44.4975 21.8415 45.6696 20.6694C46.8417 19.4973 47.5001 17.9076 47.5001 16.25C47.5001 14.5924 46.8417 13.0027 45.6696 11.8306C44.4975 10.6585 42.9077 10 41.2501 10ZM8.75015 10C7.09254 10 5.50283 10.6585 4.33073 11.8306C3.15863 13.0027 2.50015 14.5924 2.50015 16.25C2.50015 17.9076 3.15863 19.4973 4.33073 20.6694C5.50283 21.8415 7.09254 22.5 8.75015 22.5C10.4078 22.5 11.9975 21.8415 13.1696 20.6694C14.3417 19.4973 15.0001 17.9076 15.0001 16.25C15.0001 14.5924 14.3417 13.0027 13.1696 11.8306C11.9975 10.6585 10.4078 10 8.75015 10ZM18.7501 22.5C17.7556 22.5 16.8018 22.8951 16.0985 23.5983C15.3952 24.3016 15.0001 25.2554 15.0001 26.25V35C15.0002 36.3658 15.2801 37.7172 15.8224 38.9707C16.3648 40.2242 17.1583 41.3533 18.1538 42.2884C19.1493 43.2235 20.3258 43.9447 21.6108 44.4077C22.8958 44.8706 24.262 45.0654 25.6251 44.98C24.1513 43.1858 23.1557 41.0477 22.731 38.7649C22.3064 36.4821 22.4665 34.129 23.1965 31.9248C23.9265 29.7206 25.2026 27.7371 26.9059 26.159C28.6092 24.581 30.6842 23.4598 32.9376 22.9C32.4141 22.6366 31.8362 22.4996 31.2501 22.5H18.7501ZM47.5001 36.25C47.5001 39.2337 46.3149 42.0952 44.2051 44.2049C42.0953 46.3147 39.2338 47.5 36.2501 47.5C33.2665 47.5 30.405 46.3147 28.2952 44.2049C26.1854 42.0952 25.0001 39.2337 25.0001 36.25C25.0001 33.2663 26.1854 30.4048 28.2952 28.295C30.405 26.1853 33.2665 25 36.2501 25C39.2338 25 42.0953 26.1853 44.2051 28.295C46.3149 30.4048 47.5001 33.2663 47.5001 36.25ZM37.5001 31.25C37.5001 30.9185 37.3685 30.6005 37.134 30.3661C36.8996 30.1317 36.5817 30 36.2501 30C35.9186 30 35.6007 30.1317 35.3663 30.3661C35.1318 30.6005 35.0001 30.9185 35.0001 31.25V35H31.2501C30.9186 35 30.6007 35.1317 30.3663 35.3661C30.1318 35.6005 30.0001 35.9185 30.0001 36.25C30.0001 36.5815 30.1318 36.8995 30.3663 37.1339C30.6007 37.3683 30.9186 37.5 31.2501 37.5H35.0001V41.25C35.0001 41.5815 35.1318 41.8995 35.3663 42.1339C35.6007 42.3683 35.9186 42.5 36.2501 42.5C36.5817 42.5 36.8996 42.3683 37.134 42.1339C37.3685 41.8995 37.5001 41.5815 37.5001 41.25V37.5H41.2501C41.5817 37.5 41.8996 37.3683 42.134 37.1339C42.3685 36.8995 42.5001 36.5815 42.5001 36.25C42.5001 35.9185 42.3685 35.6005 42.134 35.3661C41.8996 35.1317 41.5817 35 41.2501 35H37.5001V31.25Z" fill="white"/>
</svg>
