<svg width="50" height="50" viewBox="0 0 50 50" fill="none" xmlns="http://www.w3.org/2000/svg">
<g clip-path="url(#clip0_107_169)">
<path fill-rule="evenodd" clip-rule="evenodd" d="M35.3107 0C36.5429 0 37.5429 1 37.5429 2.23214V5.16071C37.5429 5.75272 37.3077 6.32047 36.8891 6.73908C36.4705 7.15769 35.9027 7.39286 35.3107 7.39286C34.7187 7.39286 34.151 7.15769 33.7323 6.73908C33.3137 6.32047 33.0786 5.75272 33.0786 5.16071V2.23214C33.0786 1 34.0786 0 35.3107 0ZM14.4536 31.2071C15.6074 31.2306 16.7542 31.0235 17.827 30.5982C18.8998 30.1728 19.8769 29.5377 20.7012 28.73C21.5254 27.9223 22.1803 26.9583 22.6273 25.8943C23.0743 24.8304 23.3046 23.688 23.3046 22.5339C23.3046 21.3799 23.0743 20.2375 22.6273 19.1735C22.1803 18.1096 21.5254 17.1456 20.7012 16.3379C19.8769 15.5302 18.8998 14.895 17.827 14.4697C16.7542 14.0443 15.6074 13.8373 14.4536 13.8607C12.1838 13.9068 10.0225 14.8408 8.43351 16.4623C6.84456 18.0839 5.95458 20.2637 5.95458 22.5339C5.95458 24.8042 6.84456 26.984 8.43351 28.6055C10.0225 30.2271 12.1838 31.1611 14.4536 31.2071ZM0 48.5536C0.0596443 44.7591 1.60885 41.1403 4.31327 38.478C7.01768 35.8158 10.6604 34.3237 14.4554 34.3237C18.2503 34.3237 21.893 35.8158 24.5974 38.478C27.3019 41.1403 28.8511 44.7591 28.9107 48.5536C28.9107 48.9372 28.7583 49.3051 28.4871 49.5764C28.2158 49.8476 27.8479 50 27.4643 50H1.44643C1.06281 50 0.694907 49.8476 0.423649 49.5764C0.152391 49.3051 0 48.9372 0 48.5536ZM48.9857 8.90357C49.2311 8.73748 49.4409 8.52419 49.603 8.27614C49.7651 8.0281 49.8762 7.75027 49.9298 7.45885C49.9834 7.16743 49.9784 6.86826 49.9152 6.57878C49.852 6.2893 49.7317 6.0153 49.5615 5.77277C49.3913 5.53024 49.1745 5.32402 48.9237 5.16615C48.673 5.00829 48.3933 4.90192 48.101 4.85326C47.8088 4.8046 47.5097 4.81462 47.2213 4.88273C46.933 4.95085 46.661 5.0757 46.4214 5.25L44.025 6.93214C43.5515 7.27654 43.2324 7.79316 43.1362 8.37067C43.0401 8.94819 43.1747 9.54035 43.511 10.0196C43.8473 10.4988 44.3585 10.8267 44.9343 10.9326C45.5101 11.0385 46.1045 10.9139 46.5893 10.5857L48.9857 8.90357ZM21.0821 5.79643C20.7426 6.2806 20.609 6.87974 20.7108 7.4623C20.8126 8.04486 21.1414 8.56322 21.625 8.90357L24.025 10.5857C24.2646 10.76 24.5365 10.8849 24.8249 10.953C25.1133 11.0211 25.4123 11.0311 25.7046 10.9825C25.9969 10.9338 26.2766 10.8274 26.5273 10.6696C26.7781 10.5117 26.9949 10.3055 27.1651 10.0629C27.3353 9.82041 27.4555 9.54642 27.5188 9.25694C27.582 8.96745 27.587 8.66828 27.5334 8.37686C27.4798 8.08544 27.3687 7.80761 27.2066 7.55957C27.0445 7.31153 26.8347 7.09824 26.5893 6.93214L24.1893 5.25C23.7051 4.91042 23.106 4.77686 22.5234 4.87864C21.9409 4.98042 21.4225 5.30923 21.0821 5.79286V5.79643ZM35.1429 10.1429C36.1999 10.1325 37.2486 10.3308 38.2289 10.7264C39.2092 11.122 40.1018 11.7072 40.8556 12.4484C41.6094 13.1895 42.2095 14.0721 42.6216 15.0456C43.0337 16.0191 43.2497 17.0643 43.2571 18.1214C43.2214 21.05 41.4714 23.8357 38.85 25.1429V29.1179C38.8426 29.3484 38.7463 29.5672 38.5812 29.7283C38.416 29.8895 38.195 29.9804 37.9643 29.9821H32.65C32.4193 29.9804 32.1982 29.8895 32.0331 29.7283C31.868 29.5672 31.7717 29.3484 31.7643 29.1179V25.2107C30.5035 24.5686 29.4337 23.6063 28.6621 22.4203C27.8904 21.2344 27.4441 19.8664 27.3679 18.4536C27.3311 17.397 27.5033 16.3435 27.8744 15.3536C28.2455 14.3637 28.8084 13.4567 29.5306 12.6847C30.2529 11.9126 31.1204 11.2907 32.0835 10.8545C33.0465 10.4184 34.0862 10.1765 35.1429 10.1429Z" fill="white"/>
</g>
<defs>
<clipPath id="clip0_107_169">
<rect width="50" height="50" fill="white"/>
</clipPath>
</defs>
</svg>
