<svg width="50" height="50" viewBox="0 0 50 50" fill="none" xmlns="http://www.w3.org/2000/svg">
<path d="M11.4583 13.5438H7.29167V19.7938H11.4583V13.5438ZM7.29167 19.7938L3.125 19.7958V32.2979H7.29167V19.7938ZM11.4583 32.2979H7.29167V38.5479H11.4583V32.2979ZM36.4667 38.55V48.9688H11.4583V38.5479L17.7083 38.55V42.7167H30.2125V38.55H36.4667ZM40.6333 32.2979H36.4667V38.55L40.6333 38.5479V32.2979ZM48.9688 23.9625V28.1292H44.8021V32.2979H40.6333L40.6354 19.7958H44.8021V23.9625H48.9688ZM40.6333 13.5438H36.4667V19.7938H40.6333V13.5438ZM36.4667 3.125V13.5438H30.2146V9.37708H26.0479V28.1313H21.8792V9.375H17.7125V13.5417L11.4583 13.5438V3.125H36.4667Z" fill="white"/>
</svg>
