<svg width="1440" height="758" viewBox="0 0 1440 758" fill="none" xmlns="http://www.w3.org/2000/svg">
<path d="M71.9843 -461V-394.154M71.9843 -461H0V-394.154M71.9843 -461H143.969M71.9843 -394.154L71.9843 -327.308M71.9843 -394.154H0M71.9843 -394.154L143.969 -394.154M71.9843 -327.308V-260.462M71.9843 -327.308H0M71.9843 -327.308L143.969 -327.308M71.9843 -260.462L71.9843 -193.615M71.9843 -260.462H0M71.9843 -260.462H143.968M71.9843 -193.615V-126.769M71.9843 -193.615H0M71.9843 -193.615H143.968M71.9843 -126.769V-59.9231M71.9843 -126.769H0M71.9843 -126.769H143.968M71.9843 -59.9231L71.9842 6.92303M71.9843 -59.9231H0M71.9843 -59.9231H143.968M71.9842 6.92303V73.7691M71.9842 6.92303H0M71.9842 6.92303H143.968M71.9842 73.7691V140.615M71.9842 73.7691H0M71.9842 73.7691H143.968M71.9842 140.615L71.9842 207.461M71.9842 140.615H0M71.9842 140.615H143.968M71.9842 207.461V274.308M71.9842 207.461H0M71.9842 207.461H143.968M71.9842 274.308L71.9842 341.154M71.9842 274.308H0M71.9842 274.308H143.968M71.9842 341.154V408M71.9842 341.154H0M71.9842 341.154H143.968M71.9842 408L0 408V341.154M71.9842 408H143.968M0 -394.154V-327.308M0 -327.308V-260.462M0 -260.462V-193.615M0 -193.615V-126.769M0 -126.769V-59.9231M0 -59.9231V6.92303M0 6.92303V73.7691M0 73.7691V140.615M0 140.615V207.461M0 207.461V274.308M0 274.308V341.154M143.969 -461V-394.154M143.969 -461H215.953M143.969 -394.154V-327.308M143.969 -394.154H215.953M143.969 -327.308L143.968 -260.462M143.969 -327.308H215.953M143.968 -260.462V-193.615M143.968 -260.462L215.953 -260.462M143.968 -193.615V-126.769M143.968 -193.615H215.953M143.968 -126.769V-59.9231M143.968 -126.769H215.953M143.968 -59.9231L143.968 6.92303M143.968 -59.9231H215.953M143.968 6.92303V73.7691M143.968 6.92303H215.953M143.968 73.7691V140.615M143.968 73.7691H215.953M143.968 140.615V207.461M143.968 140.615H215.953M143.968 207.461L143.968 274.308M143.968 207.461H215.953M143.968 274.308V341.154M143.968 274.308H215.953M143.968 341.154V408M143.968 341.154H215.953M143.968 408H215.953M215.953 -461V-394.154M215.953 -461H287.937M215.953 -394.154V-327.308M215.953 -394.154L287.937 -394.154M215.953 -327.308L215.953 -260.462M215.953 -327.308H287.937M215.953 -260.462V-193.615M215.953 -260.462H287.937M215.953 -193.615V-126.769M215.953 -193.615L287.937 -193.615M215.953 -126.769V-59.9231M215.953 -126.769L287.937 -126.769M215.953 -59.9231L215.953 6.92303M215.953 -59.9231H287.937M215.953 6.92303V73.7691M215.953 6.92303H287.937M215.953 73.7691V140.615M215.953 73.7691H287.937M215.953 140.615V207.461M215.953 140.615H287.937M215.953 207.461L215.953 274.308M215.953 207.461H287.937M215.953 274.308V341.154M215.953 274.308H287.937M215.953 341.154V408M215.953 341.154H287.937M215.953 408H287.937M287.937 -461V-394.154M287.937 -461H359.921M287.937 -394.154V-327.308M287.937 -394.154H359.921M287.937 -327.308V-260.462M287.937 -327.308L359.921 -327.308M287.937 -260.462V-193.615M287.937 -260.462H359.921M287.937 -193.615V-126.769M287.937 -193.615H359.921M287.937 -126.769V-59.9231M287.937 -126.769H359.921M287.937 -59.9231L287.937 6.92303M287.937 -59.9231H359.921M287.937 6.92303V73.7691M287.937 6.92303H359.921M287.937 73.7691V140.615M287.937 73.7691H359.921M287.937 140.615V207.461M287.937 140.615H359.921M287.937 207.461V274.308M287.937 207.461H359.921M287.937 274.308V341.154M287.937 274.308H359.921M287.937 341.154V408M287.937 341.154H359.921M287.937 408H359.921M503.89 -461V-394.154M503.89 -461H431.905M503.89 -461H575.874M503.89 -394.154V-327.308M503.89 -394.154H431.905M503.89 -394.154L575.874 -394.154M503.89 -327.308V-260.462M503.89 -327.308H431.905M503.89 -327.308H575.874M503.89 -260.462V-193.615M503.89 -260.462L431.905 -260.462M503.89 -260.462H575.874M503.89 -193.615V-126.769M503.89 -193.615H431.905M503.89 -193.615H575.874M503.89 -126.769V-59.9231M503.89 -126.769H431.905M503.89 -126.769H575.874M503.89 -59.9231L503.89 6.92306M503.89 -59.9231L431.905 -59.9231M503.89 -59.9231H575.874M503.89 6.92306V73.7692M503.89 6.92306L431.905 6.92303M503.89 6.92306H575.874M503.89 73.7692V140.615M503.89 73.7692L431.905 73.7691M503.89 73.7692H575.874M503.89 140.615V207.462M503.89 140.615H431.905M503.89 140.615H575.874M503.89 207.462V274.308M503.89 207.462L431.905 207.461M503.89 207.462H575.874M503.89 274.308V341.154M503.89 274.308L431.905 274.308M503.89 274.308H575.874M503.89 341.154V408M503.89 341.154L431.905 341.154M503.89 341.154H575.874M503.89 408H431.905M503.89 408H575.874M719.842 -461V-394.154M719.842 -461H647.858M719.842 -461H791.827M719.842 -394.154V-327.308M719.842 -394.154L647.858 -394.154M719.842 -394.154H791.827M719.842 -327.308V-260.462M719.842 -327.308H647.858M719.842 -327.308H791.827M719.842 -260.462V-193.615M719.842 -260.462H647.858M719.842 -260.462L791.827 -260.462M719.842 -193.615V-126.769M719.842 -193.615L647.858 -193.615M719.842 -193.615H791.827M719.842 -126.769V-59.9231M719.842 -126.769L647.858 -126.769M719.842 -126.769H791.827M719.842 -59.9231L719.842 6.92306M719.842 -59.9231H647.858M719.842 -59.9231H791.827M719.842 6.92306V73.7692M719.842 6.92306H647.858M719.842 6.92306H791.827M719.842 73.7692V140.615M719.842 73.7692H647.858M719.842 73.7692H791.827M719.842 140.615V207.462M719.842 140.615H647.858M719.842 140.615H791.827M719.842 207.462V274.308M719.842 207.462H647.858M719.842 207.462H791.827M719.842 274.308V341.154M719.842 274.308H647.858M719.842 274.308H791.827M719.842 341.154V408M719.842 341.154H647.858M719.842 341.154H791.827M719.842 408H647.858M719.842 408H791.827M359.921 -461V-394.154M359.921 -461H431.905M359.921 -394.154V-327.308M359.921 -394.154L431.905 -394.154M359.921 -327.308V-260.462M359.921 -327.308H431.905M359.921 -260.462V-193.615M359.921 -260.462H431.905M359.921 -193.615V-126.769M359.921 -193.615H431.905M359.921 -126.769V-59.9231M359.921 -126.769H431.905M359.921 -59.9231L359.921 6.92303M359.921 -59.9231H431.905M359.921 6.92303V73.7691M359.921 6.92303H431.905M359.921 73.7691V140.615M359.921 73.7691H431.905M359.921 140.615V207.461M359.921 140.615H431.905M359.921 207.461V274.308M359.921 207.461H431.905M359.921 274.308V341.154M359.921 274.308H431.905M359.921 341.154V408M359.921 341.154H431.905M359.921 408H431.905M575.874 -461V-394.154M575.874 -461H647.858M575.874 -394.154V-327.308M575.874 -394.154H647.858M575.874 -327.308V-260.462M575.874 -327.308L647.858 -327.308M575.874 -260.462V-193.615M575.874 -260.462H647.858M575.874 -193.615V-126.769M575.874 -193.615H647.858M575.874 -126.769V-59.9231M575.874 -126.769H647.858M575.874 -59.9231L575.874 6.92306M575.874 -59.9231H647.858M575.874 6.92306V73.7692M575.874 6.92306H647.858M575.874 73.7692V140.615M575.874 73.7692H647.858M575.874 140.615V207.462M575.874 140.615H647.858M575.874 207.462V274.308M575.874 207.462H647.858M575.874 274.308V341.154M575.874 274.308H647.858M575.874 341.154V408M575.874 341.154H647.858M575.874 408H647.858M791.827 -461V-394.154M791.827 -461H863.811M791.827 -394.154V-327.308M791.827 -394.154L863.811 -394.154M791.827 -327.308V-260.462M791.827 -327.308L863.811 -327.308M791.827 -260.462V-193.615M791.827 -260.462H863.811M791.827 -193.615V-126.769M791.827 -193.615H863.811M791.827 -126.769V-59.9231M791.827 -126.769H863.811M791.827 -59.9231V6.92306M791.827 -59.9231H863.811M791.827 6.92306V73.7692M791.827 6.92306H863.811M791.827 73.7692V140.615M791.827 73.7692H863.811M791.827 140.615V207.462M791.827 140.615H863.811M791.827 207.462V274.308M791.827 207.462H863.811M791.827 274.308V341.154M791.827 274.308H863.811M791.827 341.154V408M791.827 341.154H863.811M791.827 408H863.811M431.905 -461V-394.154M431.905 -394.154V-327.308M431.905 -327.308V-260.462M431.905 -260.462L431.905 -193.615M431.905 -193.615V-126.769M431.905 -126.769V-59.9231M431.905 -59.9231V6.92303M431.905 6.92303V73.7691M431.905 73.7691V140.615M431.905 140.615L431.905 207.461M431.905 207.461V274.308M431.905 274.308V341.154M431.905 341.154V408M647.858 -461V-394.154M647.858 -394.154V-327.308M647.858 -327.308V-260.462M647.858 -260.462V-193.615M647.858 -193.615V-126.769M647.858 -126.769V-59.9231M647.858 -59.9231V6.92306M647.858 6.92306V73.7692M647.858 73.7692V140.615M647.858 140.615V207.462M647.858 207.462V274.308M647.858 274.308V341.154M647.858 341.154V408M863.811 -461V-394.154M863.811 -461H935.795V408H863.811M863.811 -394.154V-327.308M863.811 -394.154H935.794M863.811 -327.308V-260.462M863.811 -327.308H935.794M863.811 -260.462V-193.615M863.811 -260.462H935.794M863.811 -193.615V-126.769M863.811 -193.615H935.794M863.811 -126.769V-59.9231M863.811 -126.769H935.794M863.811 -59.9231V6.92306M863.811 -59.9231H935.794M863.811 6.92306V73.7692M863.811 6.92306H935.794M863.811 73.7692V140.615M863.811 73.7692H935.794M863.811 140.615V207.462M863.811 140.615H935.794M863.811 207.462V274.308M863.811 207.462H935.794M863.811 274.308V341.154M863.811 274.308H935.794M863.811 341.154V408M863.811 341.154H935.794M576.189 -461V-394.154M576.189 -461H504.205V-394.154M576.189 -461H648.173M576.189 -394.154V-327.308M576.189 -394.154H504.205M576.189 -394.154L648.173 -394.154M576.189 -327.308V-260.462M576.189 -327.308H504.205M576.189 -327.308L648.173 -327.308M576.189 -260.462V-193.615M576.189 -260.462H504.205M576.189 -260.462H648.173M576.189 -193.615V-126.769M576.189 -193.615H504.205M576.189 -193.615H648.173M576.189 -126.769V-59.9231M576.189 -126.769H504.205M576.189 -126.769H648.173M576.189 -59.9231V6.92303M576.189 -59.9231H504.205M576.189 -59.9231H648.173M576.189 6.92303V73.7691M576.189 6.92303H504.205M576.189 6.92303H648.173M576.189 73.7691V140.615M576.189 73.7691H504.205M576.189 73.7691H648.173M576.189 140.615V207.461M576.189 140.615H504.205M576.189 140.615H648.173M576.189 207.461V274.308M576.189 207.461H504.205M576.189 207.461H648.173M576.189 274.308L576.189 341.154M576.189 274.308H504.205M576.189 274.308H648.173M576.189 341.154V408M576.189 341.154H504.205M576.189 341.154H648.173M576.189 408L504.205 408V341.154M576.189 408H648.173M504.205 -394.154V-327.308M504.205 -327.308V-260.462M504.205 -260.462V-193.615M504.205 -193.615V-126.769M504.205 -126.769V-59.9231M504.205 -59.9231V6.92303M504.205 6.92303V73.7691M504.205 73.7691V140.615M504.205 140.615V207.461M504.205 207.461V274.308M504.205 274.308V341.154M648.173 -461V-394.154M648.173 -461H720.158M648.173 -394.154V-327.308M648.173 -394.154H720.158M648.173 -327.308V-260.462M648.173 -327.308H720.158M648.173 -260.462V-193.615M648.173 -260.462L720.158 -260.462M648.173 -193.615V-126.769M648.173 -193.615H720.158M648.173 -126.769V-59.9231M648.173 -126.769H720.158M648.173 -59.9231V6.92303M648.173 -59.9231H720.158M648.173 6.92303V73.7691M648.173 6.92303H720.158M648.173 73.7691V140.615M648.173 73.7691H720.158M648.173 140.615V207.461M648.173 140.615H720.158M648.173 207.461V274.308M648.173 207.461H720.158M648.173 274.308V341.154M648.173 274.308H720.158M648.173 341.154V408M648.173 341.154H720.158M648.173 408H720.158M720.158 -461V-394.154M720.158 -461H792.142M720.158 -394.154V-327.308M720.158 -394.154L792.142 -394.154M720.158 -327.308L720.158 -260.462M720.158 -327.308H792.142M720.158 -260.462V-193.615M720.158 -260.462H792.142M720.158 -193.615V-126.769M720.158 -193.615L792.142 -193.615M720.158 -126.769V-59.9231M720.158 -126.769L792.142 -126.769M720.158 -59.9231V6.92303M720.158 -59.9231H792.142M720.158 6.92303V73.7691M720.158 6.92303H792.142M720.158 73.7691V140.615M720.158 73.7691H792.142M720.158 140.615V207.461M720.158 140.615H792.142M720.158 207.461V274.308M720.158 207.461H792.142M720.158 274.308V341.154M720.158 274.308H792.142M720.158 341.154V408M720.158 341.154H792.142M720.158 408H792.142M792.142 -461V-394.154M792.142 -461H864.126M792.142 -394.154V-327.308M792.142 -394.154H864.126M792.142 -327.308V-260.462M792.142 -327.308L864.126 -327.308M792.142 -260.462V-193.615M792.142 -260.462H864.126M792.142 -193.615V-126.769M792.142 -193.615H864.126M792.142 -126.769V-59.9231M792.142 -126.769H864.126M792.142 -59.9231L792.142 6.92303M792.142 -59.9231H864.126M792.142 6.92303V73.7691M792.142 6.92303H864.126M792.142 73.7691V140.615M792.142 73.7691H864.126M792.142 140.615V207.461M792.142 140.615H864.126M792.142 207.461V274.308M792.142 207.461H864.126M792.142 274.308V341.154M792.142 274.308H864.126M792.142 341.154V408M792.142 341.154H864.126M792.142 408H864.126M1008.09 -461V-394.154M1008.09 -461H936.11M1008.09 -461H1080.08M1008.09 -394.154V-327.308M1008.09 -394.154H936.11M1008.09 -394.154L1080.08 -394.154M1008.09 -327.308V-260.462M1008.09 -327.308H936.11M1008.09 -327.308H1080.08M1008.09 -260.462V-193.615M1008.09 -260.462L936.11 -260.462M1008.09 -260.462H1080.08M1008.09 -193.615V-126.769M1008.09 -193.615H936.11M1008.09 -193.615H1080.08M1008.09 -126.769V-59.9231M1008.09 -126.769H936.11M1008.09 -126.769H1080.08M1008.09 -59.9231V6.92306M1008.09 -59.9231L936.11 -59.9231M1008.09 -59.9231H1080.08M1008.09 6.92306V73.7692M1008.09 6.92306L936.11 6.92303M1008.09 6.92306H1080.08M1008.09 73.7692V140.615M1008.09 73.7692L936.11 73.7691M1008.09 73.7692H1080.08M1008.09 140.615V207.462M1008.09 140.615H936.11M1008.09 140.615H1080.08M1008.09 207.462V274.308M1008.09 207.462L936.11 207.461M1008.09 207.462H1080.08M1008.09 274.308V341.154M1008.09 274.308L936.11 274.308M1008.09 274.308H1080.08M1008.09 341.154V408M1008.09 341.154L936.11 341.154M1008.09 341.154H1080.08M1008.09 408H936.11M1008.09 408H1080.08M1224.05 -461V-394.154M1224.05 -461H1152.06M1224.05 -461H1296.03M1224.05 -394.154V-327.308M1224.05 -394.154L1152.06 -394.154M1224.05 -394.154H1296.03M1224.05 -327.308V-260.462M1224.05 -327.308H1152.06M1224.05 -327.308H1296.03M1224.05 -260.462V-193.615M1224.05 -260.462H1152.06M1224.05 -260.462L1296.03 -260.462M1224.05 -193.615V-126.769M1224.05 -193.615L1152.06 -193.615M1224.05 -193.615H1296.03M1224.05 -126.769V-59.9231M1224.05 -126.769L1152.06 -126.769M1224.05 -126.769H1296.03M1224.05 -59.9231L1224.05 6.92306M1224.05 -59.9231H1152.06M1224.05 -59.9231H1296.03M1224.05 6.92306V73.7692M1224.05 6.92306H1152.06M1224.05 6.92306H1296.03M1224.05 73.7692V140.615M1224.05 73.7692H1152.06M1224.05 73.7692H1296.03M1224.05 140.615V207.462M1224.05 140.615H1152.06M1224.05 140.615H1296.03M1224.05 207.462V274.308M1224.05 207.462H1152.06M1224.05 207.462H1296.03M1224.05 274.308V341.154M1224.05 274.308H1152.06M1224.05 274.308H1296.03M1224.05 341.154V408M1224.05 341.154H1152.06M1224.05 341.154H1296.03M1224.05 408H1152.06M1224.05 408H1296.03M864.126 -461V-394.154M864.126 -461H936.11M864.126 -394.154V-327.308M864.126 -394.154L936.11 -394.154M864.126 -327.308V-260.462M864.126 -327.308H936.11M864.126 -260.462V-193.615M864.126 -260.462H936.11M864.126 -193.615V-126.769M864.126 -193.615H936.11M864.126 -126.769V-59.9231M864.126 -126.769H936.11M864.126 -59.9231V6.92303M864.126 -59.9231H936.11M864.126 6.92303V73.7691M864.126 6.92303H936.11M864.126 73.7691V140.615M864.126 73.7691H936.11M864.126 140.615V207.461M864.126 140.615H936.11M864.126 207.461V274.308M864.126 207.461H936.11M864.126 274.308V341.154M864.126 274.308H936.11M864.126 341.154V408M864.126 341.154H936.11M864.126 408H936.11M1080.08 -461V-394.154M1080.08 -461H1152.06M1080.08 -394.154V-327.308M1080.08 -394.154H1152.06M1080.08 -327.308V-260.462M1080.08 -327.308L1152.06 -327.308M1080.08 -260.462V-193.615M1080.08 -260.462H1152.06M1080.08 -193.615V-126.769M1080.08 -193.615H1152.06M1080.08 -126.769V-59.9231M1080.08 -126.769H1152.06M1080.08 -59.9231V6.92306M1080.08 -59.9231H1152.06M1080.08 6.92306V73.7692M1080.08 6.92306H1152.06M1080.08 73.7692V140.615M1080.08 73.7692H1152.06M1080.08 140.615V207.462M1080.08 140.615H1152.06M1080.08 207.462V274.308M1080.08 207.462H1152.06M1080.08 274.308V341.154M1080.08 274.308H1152.06M1080.08 341.154V408M1080.08 341.154H1152.06M1080.08 408H1152.06M1296.03 -461V-394.154M1296.03 -461H1368.02M1296.03 -394.154V-327.308M1296.03 -394.154L1368.02 -394.154M1296.03 -327.308V-260.462M1296.03 -327.308L1368.02 -327.308M1296.03 -260.462V-193.615M1296.03 -260.462H1368.02M1296.03 -193.615V-126.769M1296.03 -193.615H1368.02M1296.03 -126.769V-59.9231M1296.03 -126.769H1368.02M1296.03 -59.9231V6.92306M1296.03 -59.9231H1368.02M1296.03 6.92306V73.7692M1296.03 6.92306H1368.02M1296.03 73.7692V140.615M1296.03 73.7692H1368.02M1296.03 140.615V207.462M1296.03 140.615H1368.02M1296.03 207.462V274.308M1296.03 207.462H1368.02M1296.03 274.308V341.154M1296.03 274.308H1368.02M1296.03 341.154V408M1296.03 341.154H1368.02M1296.03 408H1368.02M936.11 -461V-394.154M936.11 -394.154V-327.308M936.11 -327.308V-260.462M936.11 -260.462V-193.615M936.11 -193.615V-126.769M936.11 -126.769V-59.9231M936.11 -59.9231V6.92303M936.11 6.92303V73.7691M936.11 73.7691V140.615M936.11 140.615L936.11 207.461M936.11 207.461V274.308M936.11 274.308V341.154M936.11 341.154V408M1152.06 -461V-394.154M1152.06 -394.154V-327.308M1152.06 -327.308V-260.462M1152.06 -260.462V-193.615M1152.06 -193.615V-126.769M1152.06 -126.769V-59.9231M1152.06 -59.9231V6.92306M1152.06 6.92306V73.7692M1152.06 73.7692V140.615M1152.06 140.615V207.462M1152.06 207.462V274.308M1152.06 274.308V341.154M1152.06 341.154V408M1368.02 -461V-394.154M1368.02 -461H1440V408H1368.02M1368.02 -394.154V-327.308M1368.02 -394.154H1440M1368.02 -327.308V-260.462M1368.02 -327.308H1440M1368.02 -260.462V-193.615M1368.02 -260.462H1440M1368.02 -193.615V-126.769M1368.02 -193.615H1440M1368.02 -126.769V-59.9231M1368.02 -126.769H1440M1368.02 -59.9231V6.92306M1368.02 -59.9231H1440M1368.02 6.92306V73.7692M1368.02 6.92306H1440M1368.02 73.7692V140.615M1368.02 73.7692H1440M1368.02 140.615V207.462M1368.02 140.615H1440M1368.02 207.462V274.308M1368.02 207.462H1440M1368.02 274.308V341.154M1368.02 274.308H1440M1368.02 341.154V408M1368.02 341.154H1440" stroke="url(#paint0_linear_614_264)"/>
<path d="M71.9843 1343V1276.15M71.9843 1343H0V1276.15M71.9843 1343H143.969M71.9843 1276.15L71.9843 1209.31M71.9843 1276.15H0M71.9843 1276.15L143.969 1276.15M71.9843 1209.31V1142.46M71.9843 1209.31H0M71.9843 1209.31L143.969 1209.31M71.9843 1142.46L71.9843 1075.62M71.9843 1142.46H0M71.9843 1142.46H143.968M71.9843 1075.62V1008.77M71.9843 1075.62H0M71.9843 1075.62H143.968M71.9843 1008.77V941.923M71.9843 1008.77H0M71.9843 1008.77H143.968M71.9843 941.923L71.9842 875.077M71.9843 941.923H0M71.9843 941.923H143.968M71.9842 875.077V808.231M71.9842 875.077H0M71.9842 875.077H143.968M71.9842 808.231V741.385M71.9842 808.231H0M71.9842 808.231H143.968M71.9842 741.385L71.9842 674.539M71.9842 741.385H0M71.9842 741.385H143.968M71.9842 674.539V607.692M71.9842 674.539H0M71.9842 674.539H143.968M71.9842 607.692L71.9842 540.846M71.9842 607.692H0M71.9842 607.692H143.968M71.9842 540.846V474M71.9842 540.846H0M71.9842 540.846H143.968M71.9842 474L0 474V540.846M71.9842 474H143.968M0 1276.15V1209.31M0 1209.31V1142.46M0 1142.46V1075.62M0 1075.62V1008.77M0 1008.77V941.923M0 941.923V875.077M0 875.077V808.231M0 808.231V741.385M0 741.385V674.539M0 674.539V607.692M0 607.692V540.846M143.969 1343V1276.15M143.969 1343H215.953M143.969 1276.15V1209.31M143.969 1276.15H215.953M143.969 1209.31L143.968 1142.46M143.969 1209.31H215.953M143.968 1142.46V1075.62M143.968 1142.46L215.953 1142.46M143.968 1075.62V1008.77M143.968 1075.62H215.953M143.968 1008.77V941.923M143.968 1008.77H215.953M143.968 941.923L143.968 875.077M143.968 941.923H215.953M143.968 875.077V808.231M143.968 875.077H215.953M143.968 808.231V741.385M143.968 808.231H215.953M143.968 741.385V674.539M143.968 741.385H215.953M143.968 674.539L143.968 607.692M143.968 674.539H215.953M143.968 607.692V540.846M143.968 607.692H215.953M143.968 540.846V474M143.968 540.846H215.953M143.968 474H215.953M215.953 1343V1276.15M215.953 1343H287.937M215.953 1276.15V1209.31M215.953 1276.15L287.937 1276.15M215.953 1209.31L215.953 1142.46M215.953 1209.31H287.937M215.953 1142.46V1075.62M215.953 1142.46H287.937M215.953 1075.62V1008.77M215.953 1075.62L287.937 1075.62M215.953 1008.77V941.923M215.953 1008.77L287.937 1008.77M215.953 941.923L215.953 875.077M215.953 941.923H287.937M215.953 875.077V808.231M215.953 875.077H287.937M215.953 808.231V741.385M215.953 808.231H287.937M215.953 741.385V674.539M215.953 741.385H287.937M215.953 674.539L215.953 607.692M215.953 674.539H287.937M215.953 607.692V540.846M215.953 607.692H287.937M215.953 540.846V474M215.953 540.846H287.937M215.953 474H287.937M287.937 1343V1276.15M287.937 1343H359.921M287.937 1276.15V1209.31M287.937 1276.15H359.921M287.937 1209.31V1142.46M287.937 1209.31L359.921 1209.31M287.937 1142.46V1075.62M287.937 1142.46H359.921M287.937 1075.62V1008.77M287.937 1075.62H359.921M287.937 1008.77V941.923M287.937 1008.77H359.921M287.937 941.923L287.937 875.077M287.937 941.923H359.921M287.937 875.077V808.231M287.937 875.077H359.921M287.937 808.231V741.385M287.937 808.231H359.921M287.937 741.385V674.539M287.937 741.385H359.921M287.937 674.539V607.692M287.937 674.539H359.921M287.937 607.692V540.846M287.937 607.692H359.921M287.937 540.846V474M287.937 540.846H359.921M287.937 474H359.921M503.89 1343V1276.15M503.89 1343H431.905M503.89 1343H575.874M503.89 1276.15V1209.31M503.89 1276.15H431.905M503.89 1276.15L575.874 1276.15M503.89 1209.31V1142.46M503.89 1209.31H431.905M503.89 1209.31H575.874M503.89 1142.46V1075.62M503.89 1142.46L431.905 1142.46M503.89 1142.46H575.874M503.89 1075.62V1008.77M503.89 1075.62H431.905M503.89 1075.62H575.874M503.89 1008.77V941.923M503.89 1008.77H431.905M503.89 1008.77H575.874M503.89 941.923L503.89 875.077M503.89 941.923L431.905 941.923M503.89 941.923H575.874M503.89 875.077V808.231M503.89 875.077L431.905 875.077M503.89 875.077H575.874M503.89 808.231V741.385M503.89 808.231L431.905 808.231M503.89 808.231H575.874M503.89 741.385V674.538M503.89 741.385H431.905M503.89 741.385H575.874M503.89 674.538V607.692M503.89 674.538L431.905 674.539M503.89 674.538H575.874M503.89 607.692V540.846M503.89 607.692L431.905 607.692M503.89 607.692H575.874M503.89 540.846V474M503.89 540.846L431.905 540.846M503.89 540.846H575.874M503.89 474H431.905M503.89 474H575.874M719.842 1343V1276.15M719.842 1343H647.858M719.842 1343H791.827M719.842 1276.15V1209.31M719.842 1276.15L647.858 1276.15M719.842 1276.15H791.827M719.842 1209.31V1142.46M719.842 1209.31H647.858M719.842 1209.31H791.827M719.842 1142.46V1075.62M719.842 1142.46H647.858M719.842 1142.46L791.827 1142.46M719.842 1075.62V1008.77M719.842 1075.62L647.858 1075.62M719.842 1075.62H791.827M719.842 1008.77V941.923M719.842 1008.77L647.858 1008.77M719.842 1008.77H791.827M719.842 941.923L719.842 875.077M719.842 941.923H647.858M719.842 941.923H791.827M719.842 875.077V808.231M719.842 875.077H647.858M719.842 875.077H791.827M719.842 808.231V741.385M719.842 808.231H647.858M719.842 808.231H791.827M719.842 741.385V674.538M719.842 741.385H647.858M719.842 741.385H791.827M719.842 674.538V607.692M719.842 674.538H647.858M719.842 674.538H791.827M719.842 607.692V540.846M719.842 607.692H647.858M719.842 607.692H791.827M719.842 540.846V474M719.842 540.846H647.858M719.842 540.846H791.827M719.842 474H647.858M719.842 474H791.827M359.921 1343V1276.15M359.921 1343H431.905M359.921 1276.15V1209.31M359.921 1276.15L431.905 1276.15M359.921 1209.31V1142.46M359.921 1209.31H431.905M359.921 1142.46V1075.62M359.921 1142.46H431.905M359.921 1075.62V1008.77M359.921 1075.62H431.905M359.921 1008.77V941.923M359.921 1008.77H431.905M359.921 941.923L359.921 875.077M359.921 941.923H431.905M359.921 875.077V808.231M359.921 875.077H431.905M359.921 808.231V741.385M359.921 808.231H431.905M359.921 741.385V674.539M359.921 741.385H431.905M359.921 674.539V607.692M359.921 674.539H431.905M359.921 607.692V540.846M359.921 607.692H431.905M359.921 540.846V474M359.921 540.846H431.905M359.921 474H431.905M575.874 1343V1276.15M575.874 1343H647.858M575.874 1276.15V1209.31M575.874 1276.15H647.858M575.874 1209.31V1142.46M575.874 1209.31L647.858 1209.31M575.874 1142.46V1075.62M575.874 1142.46H647.858M575.874 1075.62V1008.77M575.874 1075.62H647.858M575.874 1008.77V941.923M575.874 1008.77H647.858M575.874 941.923L575.874 875.077M575.874 941.923H647.858M575.874 875.077V808.231M575.874 875.077H647.858M575.874 808.231V741.385M575.874 808.231H647.858M575.874 741.385V674.538M575.874 741.385H647.858M575.874 674.538V607.692M575.874 674.538H647.858M575.874 607.692V540.846M575.874 607.692H647.858M575.874 540.846V474M575.874 540.846H647.858M575.874 474H647.858M791.827 1343V1276.15M791.827 1343H863.811M791.827 1276.15V1209.31M791.827 1276.15L863.811 1276.15M791.827 1209.31V1142.46M791.827 1209.31L863.811 1209.31M791.827 1142.46V1075.62M791.827 1142.46H863.811M791.827 1075.62V1008.77M791.827 1075.62H863.811M791.827 1008.77V941.923M791.827 1008.77H863.811M791.827 941.923V875.077M791.827 941.923H863.811M791.827 875.077V808.231M791.827 875.077H863.811M791.827 808.231V741.385M791.827 808.231H863.811M791.827 741.385V674.538M791.827 741.385H863.811M791.827 674.538V607.692M791.827 674.538H863.811M791.827 607.692V540.846M791.827 607.692H863.811M791.827 540.846V474M791.827 540.846H863.811M791.827 474H863.811M431.905 1343V1276.15M431.905 1276.15V1209.31M431.905 1209.31V1142.46M431.905 1142.46L431.905 1075.62M431.905 1075.62V1008.77M431.905 1008.77V941.923M431.905 941.923V875.077M431.905 875.077V808.231M431.905 808.231V741.385M431.905 741.385L431.905 674.539M431.905 674.539V607.692M431.905 607.692V540.846M431.905 540.846V474M647.858 1343V1276.15M647.858 1276.15V1209.31M647.858 1209.31V1142.46M647.858 1142.46V1075.62M647.858 1075.62V1008.77M647.858 1008.77V941.923M647.858 941.923V875.077M647.858 875.077V808.231M647.858 808.231V741.385M647.858 741.385V674.538M647.858 674.538V607.692M647.858 607.692V540.846M647.858 540.846V474M863.811 1343V1276.15M863.811 1343H935.795V474H863.811M863.811 1276.15V1209.31M863.811 1276.15H935.794M863.811 1209.31V1142.46M863.811 1209.31H935.794M863.811 1142.46V1075.62M863.811 1142.46H935.794M863.811 1075.62V1008.77M863.811 1075.62H935.794M863.811 1008.77V941.923M863.811 1008.77H935.794M863.811 941.923V875.077M863.811 941.923H935.794M863.811 875.077V808.231M863.811 875.077H935.794M863.811 808.231V741.385M863.811 808.231H935.794M863.811 741.385V674.538M863.811 741.385H935.794M863.811 674.538V607.692M863.811 674.538H935.794M863.811 607.692V540.846M863.811 607.692H935.794M863.811 540.846V474M863.811 540.846H935.794M576.189 1343V1276.15M576.189 1343H504.205V1276.15M576.189 1343H648.173M576.189 1276.15V1209.31M576.189 1276.15H504.205M576.189 1276.15L648.173 1276.15M576.189 1209.31V1142.46M576.189 1209.31H504.205M576.189 1209.31L648.173 1209.31M576.189 1142.46V1075.62M576.189 1142.46H504.205M576.189 1142.46H648.173M576.189 1075.62V1008.77M576.189 1075.62H504.205M576.189 1075.62H648.173M576.189 1008.77V941.923M576.189 1008.77H504.205M576.189 1008.77H648.173M576.189 941.923V875.077M576.189 941.923H504.205M576.189 941.923H648.173M576.189 875.077V808.231M576.189 875.077H504.205M576.189 875.077H648.173M576.189 808.231V741.385M576.189 808.231H504.205M576.189 808.231H648.173M576.189 741.385V674.539M576.189 741.385H504.205M576.189 741.385H648.173M576.189 674.539V607.692M576.189 674.539H504.205M576.189 674.539H648.173M576.189 607.692L576.189 540.846M576.189 607.692H504.205M576.189 607.692H648.173M576.189 540.846V474M576.189 540.846H504.205M576.189 540.846H648.173M576.189 474L504.205 474V540.846M576.189 474H648.173M504.205 1276.15V1209.31M504.205 1209.31V1142.46M504.205 1142.46V1075.62M504.205 1075.62V1008.77M504.205 1008.77V941.923M504.205 941.923V875.077M504.205 875.077V808.231M504.205 808.231V741.385M504.205 741.385V674.539M504.205 674.539V607.692M504.205 607.692V540.846M648.173 1343V1276.15M648.173 1343H720.158M648.173 1276.15V1209.31M648.173 1276.15H720.158M648.173 1209.31V1142.46M648.173 1209.31H720.158M648.173 1142.46V1075.62M648.173 1142.46L720.158 1142.46M648.173 1075.62V1008.77M648.173 1075.62H720.158M648.173 1008.77V941.923M648.173 1008.77H720.158M648.173 941.923V875.077M648.173 941.923H720.158M648.173 875.077V808.231M648.173 875.077H720.158M648.173 808.231V741.385M648.173 808.231H720.158M648.173 741.385V674.539M648.173 741.385H720.158M648.173 674.539V607.692M648.173 674.539H720.158M648.173 607.692V540.846M648.173 607.692H720.158M648.173 540.846V474M648.173 540.846H720.158M648.173 474H720.158M720.158 1343V1276.15M720.158 1343H792.142M720.158 1276.15V1209.31M720.158 1276.15L792.142 1276.15M720.158 1209.31L720.158 1142.46M720.158 1209.31H792.142M720.158 1142.46V1075.62M720.158 1142.46H792.142M720.158 1075.62V1008.77M720.158 1075.62L792.142 1075.62M720.158 1008.77V941.923M720.158 1008.77L792.142 1008.77M720.158 941.923V875.077M720.158 941.923H792.142M720.158 875.077V808.231M720.158 875.077H792.142M720.158 808.231V741.385M720.158 808.231H792.142M720.158 741.385V674.539M720.158 741.385H792.142M720.158 674.539V607.692M720.158 674.539H792.142M720.158 607.692V540.846M720.158 607.692H792.142M720.158 540.846V474M720.158 540.846H792.142M720.158 474H792.142M792.142 1343V1276.15M792.142 1343H864.126M792.142 1276.15V1209.31M792.142 1276.15H864.126M792.142 1209.31V1142.46M792.142 1209.31L864.126 1209.31M792.142 1142.46V1075.62M792.142 1142.46H864.126M792.142 1075.62V1008.77M792.142 1075.62H864.126M792.142 1008.77V941.923M792.142 1008.77H864.126M792.142 941.923L792.142 875.077M792.142 941.923H864.126M792.142 875.077V808.231M792.142 875.077H864.126M792.142 808.231V741.385M792.142 808.231H864.126M792.142 741.385V674.539M792.142 741.385H864.126M792.142 674.539V607.692M792.142 674.539H864.126M792.142 607.692V540.846M792.142 607.692H864.126M792.142 540.846V474M792.142 540.846H864.126M792.142 474H864.126M1008.09 1343V1276.15M1008.09 1343H936.11M1008.09 1343H1080.08M1008.09 1276.15V1209.31M1008.09 1276.15H936.11M1008.09 1276.15L1080.08 1276.15M1008.09 1209.31V1142.46M1008.09 1209.31H936.11M1008.09 1209.31H1080.08M1008.09 1142.46V1075.62M1008.09 1142.46L936.11 1142.46M1008.09 1142.46H1080.08M1008.09 1075.62V1008.77M1008.09 1075.62H936.11M1008.09 1075.62H1080.08M1008.09 1008.77V941.923M1008.09 1008.77H936.11M1008.09 1008.77H1080.08M1008.09 941.923V875.077M1008.09 941.923L936.11 941.923M1008.09 941.923H1080.08M1008.09 875.077V808.231M1008.09 875.077L936.11 875.077M1008.09 875.077H1080.08M1008.09 808.231V741.385M1008.09 808.231L936.11 808.231M1008.09 808.231H1080.08M1008.09 741.385V674.538M1008.09 741.385H936.11M1008.09 741.385H1080.08M1008.09 674.538V607.692M1008.09 674.538L936.11 674.539M1008.09 674.538H1080.08M1008.09 607.692V540.846M1008.09 607.692L936.11 607.692M1008.09 607.692H1080.08M1008.09 540.846V474M1008.09 540.846L936.11 540.846M1008.09 540.846H1080.08M1008.09 474H936.11M1008.09 474H1080.08M1224.05 1343V1276.15M1224.05 1343H1152.06M1224.05 1343H1296.03M1224.05 1276.15V1209.31M1224.05 1276.15L1152.06 1276.15M1224.05 1276.15H1296.03M1224.05 1209.31V1142.46M1224.05 1209.31H1152.06M1224.05 1209.31H1296.03M1224.05 1142.46V1075.62M1224.05 1142.46H1152.06M1224.05 1142.46L1296.03 1142.46M1224.05 1075.62V1008.77M1224.05 1075.62L1152.06 1075.62M1224.05 1075.62H1296.03M1224.05 1008.77V941.923M1224.05 1008.77L1152.06 1008.77M1224.05 1008.77H1296.03M1224.05 941.923L1224.05 875.077M1224.05 941.923H1152.06M1224.05 941.923H1296.03M1224.05 875.077V808.231M1224.05 875.077H1152.06M1224.05 875.077H1296.03M1224.05 808.231V741.385M1224.05 808.231H1152.06M1224.05 808.231H1296.03M1224.05 741.385V674.538M1224.05 741.385H1152.06M1224.05 741.385H1296.03M1224.05 674.538V607.692M1224.05 674.538H1152.06M1224.05 674.538H1296.03M1224.05 607.692V540.846M1224.05 607.692H1152.06M1224.05 607.692H1296.03M1224.05 540.846V474M1224.05 540.846H1152.06M1224.05 540.846H1296.03M1224.05 474H1152.06M1224.05 474H1296.03M864.126 1343V1276.15M864.126 1343H936.11M864.126 1276.15V1209.31M864.126 1276.15L936.11 1276.15M864.126 1209.31V1142.46M864.126 1209.31H936.11M864.126 1142.46V1075.62M864.126 1142.46H936.11M864.126 1075.62V1008.77M864.126 1075.62H936.11M864.126 1008.77V941.923M864.126 1008.77H936.11M864.126 941.923V875.077M864.126 941.923H936.11M864.126 875.077V808.231M864.126 875.077H936.11M864.126 808.231V741.385M864.126 808.231H936.11M864.126 741.385V674.539M864.126 741.385H936.11M864.126 674.539V607.692M864.126 674.539H936.11M864.126 607.692V540.846M864.126 607.692H936.11M864.126 540.846V474M864.126 540.846H936.11M864.126 474H936.11M1080.08 1343V1276.15M1080.08 1343H1152.06M1080.08 1276.15V1209.31M1080.08 1276.15H1152.06M1080.08 1209.31V1142.46M1080.08 1209.31L1152.06 1209.31M1080.08 1142.46V1075.62M1080.08 1142.46H1152.06M1080.08 1075.62V1008.77M1080.08 1075.62H1152.06M1080.08 1008.77V941.923M1080.08 1008.77H1152.06M1080.08 941.923V875.077M1080.08 941.923H1152.06M1080.08 875.077V808.231M1080.08 875.077H1152.06M1080.08 808.231V741.385M1080.08 808.231H1152.06M1080.08 741.385V674.538M1080.08 741.385H1152.06M1080.08 674.538V607.692M1080.08 674.538H1152.06M1080.08 607.692V540.846M1080.08 607.692H1152.06M1080.08 540.846V474M1080.08 540.846H1152.06M1080.08 474H1152.06M1296.03 1343V1276.15M1296.03 1343H1368.02M1296.03 1276.15V1209.31M1296.03 1276.15L1368.02 1276.15M1296.03 1209.31V1142.46M1296.03 1209.31L1368.02 1209.31M1296.03 1142.46V1075.62M1296.03 1142.46H1368.02M1296.03 1075.62V1008.77M1296.03 1075.62H1368.02M1296.03 1008.77V941.923M1296.03 1008.77H1368.02M1296.03 941.923V875.077M1296.03 941.923H1368.02M1296.03 875.077V808.231M1296.03 875.077H1368.02M1296.03 808.231V741.385M1296.03 808.231H1368.02M1296.03 741.385V674.538M1296.03 741.385H1368.02M1296.03 674.538V607.692M1296.03 674.538H1368.02M1296.03 607.692V540.846M1296.03 607.692H1368.02M1296.03 540.846V474M1296.03 540.846H1368.02M1296.03 474H1368.02M936.11 1343V1276.15M936.11 1276.15V1209.31M936.11 1209.31V1142.46M936.11 1142.46V1075.62M936.11 1075.62V1008.77M936.11 1008.77V941.923M936.11 941.923V875.077M936.11 875.077V808.231M936.11 808.231V741.385M936.11 741.385L936.11 674.539M936.11 674.539V607.692M936.11 607.692V540.846M936.11 540.846V474M1152.06 1343V1276.15M1152.06 1276.15V1209.31M1152.06 1209.31V1142.46M1152.06 1142.46V1075.62M1152.06 1075.62V1008.77M1152.06 1008.77V941.923M1152.06 941.923V875.077M1152.06 875.077V808.231M1152.06 808.231V741.385M1152.06 741.385V674.538M1152.06 674.538V607.692M1152.06 607.692V540.846M1152.06 540.846V474M1368.02 1343V1276.15M1368.02 1343H1440V474H1368.02M1368.02 1276.15V1209.31M1368.02 1276.15H1440M1368.02 1209.31V1142.46M1368.02 1209.31H1440M1368.02 1142.46V1075.62M1368.02 1142.46H1440M1368.02 1075.62V1008.77M1368.02 1075.62H1440M1368.02 1008.77V941.923M1368.02 1008.77H1440M1368.02 941.923V875.077M1368.02 941.923H1440M1368.02 875.077V808.231M1368.02 875.077H1440M1368.02 808.231V741.385M1368.02 808.231H1440M1368.02 741.385V674.538M1368.02 741.385H1440M1368.02 674.538V607.692M1368.02 674.538H1440M1368.02 607.692V540.846M1368.02 607.692H1440M1368.02 540.846V474M1368.02 540.846H1440" stroke="url(#paint1_linear_614_264)"/>
<g clip-path="url(#clip0_614_264)">
<path d="M792 408L792 474" stroke="#1A1A1A"/>
<path d="M864 408L864 474" stroke="#1A1A1A"/>
<path d="M936 408L936 474" stroke="#1A1A1A"/>
<path d="M1008 408L1008 474" stroke="#1A1A1A"/>
<path d="M1080 408L1080 474" stroke="#1A1A1A"/>
<path d="M1152 408L1152 474" stroke="#1A1A1A"/>
<path d="M1224 408L1224 474" stroke="#1A1A1A"/>
<path d="M1296 408L1296 474" stroke="#1A1A1A"/>
<path d="M0 408L2.88495e-06 474" stroke="#1A1A1A"/>
<path d="M72 408L72 474" stroke="#1A1A1A"/>
<path d="M144 408L144 474" stroke="#1A1A1A"/>
<path d="M216 408L216 474" stroke="#1A1A1A"/>
<path d="M288 408L288 474" stroke="#1A1A1A"/>
<path d="M360 408L360 474" stroke="#1A1A1A"/>
<path d="M432 408L432 474" stroke="#1A1A1A"/>
<path d="M504 408L504 474" stroke="#1A1A1A"/>
<path d="M576 408L576 474" stroke="#1A1A1A"/>
<path d="M648 408L648 474" stroke="#1A1A1A"/>
<path d="M720 408L720 474" stroke="#1A1A1A"/>
<path d="M792 408L792 474" stroke="#1A1A1A"/>
<path d="M1368 408L1368 474" stroke="#1A1A1A"/>
<path d="M1440 408L1440 474" stroke="#1A1A1A"/>
</g>
<defs>
<linearGradient id="paint0_linear_614_264" x1="720" y1="296" x2="720" y2="-261" gradientUnits="userSpaceOnUse">
<stop stop-color="white" stop-opacity="0.1"/>
<stop offset="1" stop-color="white" stop-opacity="0"/>
</linearGradient>
<linearGradient id="paint1_linear_614_264" x1="720" y1="586" x2="720" y2="1143" gradientUnits="userSpaceOnUse">
<stop stop-color="white" stop-opacity="0.1"/>
<stop offset="1" stop-color="white" stop-opacity="0"/>
</linearGradient>
<clipPath id="clip0_614_264">
<rect width="1440" height="867" fill="white" transform="translate(0 -90)"/>
</clipPath>
</defs>
</svg>
