<svg width="48" height="48" viewBox="0 0 48 48" fill="none" xmlns="http://www.w3.org/2000/svg">
<path d="M18 45V42H27.003V45H18ZM39 19.5C39.0018 21.9337 38.4632 24.3375 37.423 26.5377C36.3828 28.738 34.8669 30.6798 32.985 32.2229C31.188 33.705 30 35.802 30 38.1329V39H15V38.3279C15 36.0779 14.091 33.858 12.318 32.4689C9.92366 30.5962 8.09401 28.0976 7.0314 25.2497C5.96878 22.4017 5.71459 19.3154 6.29695 16.3319C7.48495 9.93595 12.573 4.70095 18.942 3.37195C21.3538 2.84276 23.8537 2.86104 26.2576 3.42546C28.6615 3.98987 30.9082 5.08605 32.8326 6.63335C34.7569 8.18066 36.3099 10.1397 37.3772 12.3664C38.4445 14.5931 38.999 17.0307 39 19.5ZM13.5 21C13.5 14.799 17.058 10.4999 22.5 10.4999V7.49995C15.261 7.49995 10.5 13.2539 10.5 21H13.5Z" fill="white"/>
</svg>
