<svg width="48" height="48" viewBox="0 0 48 48" fill="none" xmlns="http://www.w3.org/2000/svg">
<path fill-rule="evenodd" clip-rule="evenodd" d="M10.8 4H37.2C39.0035 4 40.7331 4.71643 42.0083 5.99167C43.2836 7.26692 44 8.99653 44 10.8V37.2C44 39.0035 43.2836 40.7331 42.0083 42.0083C40.7331 43.2836 39.0035 44 37.2 44H10.8C8.99653 44 7.26692 43.2836 5.99167 42.0083C4.71643 40.7331 4 39.0035 4 37.2V10.8C4 8.99653 4.71643 7.26692 5.99167 5.99167C7.26692 4.71643 8.99653 4 10.8 4ZM14 10C14.5304 10 15.0391 10.2107 15.4142 10.5858C15.7893 10.9609 16 11.4696 16 12V28C16 28.5304 15.7893 29.0391 15.4142 29.4142C15.0391 29.7893 14.5304 30 14 30C13.4696 30 12.9609 29.7893 12.5858 29.4142C12.2107 29.0391 12 28.5304 12 28V12C12 11.4696 12.2107 10.9609 12.5858 10.5858C12.9609 10.2107 13.4696 10 14 10ZM24 10C24.5304 10 25.0391 10.2107 25.4142 10.5858C25.7893 10.9609 26 11.4696 26 12V24C26 24.5304 25.7893 25.0391 25.4142 25.4142C25.0391 25.7893 24.5304 26 24 26C23.4696 26 22.9609 25.7893 22.5858 25.4142C22.2107 25.0391 22 24.5304 22 24V12C22 11.4696 22.2107 10.9609 22.5858 10.5858C22.9609 10.2107 23.4696 10 24 10ZM36 12C36 11.4696 35.7893 10.9609 35.4142 10.5858C35.0391 10.2107 34.5304 10 34 10C33.4696 10 32.9609 10.2107 32.5858 10.5858C32.2107 10.9609 32 11.4696 32 12V32C32 32.5304 32.2107 33.0391 32.5858 33.4142C32.9609 33.7893 33.4696 34 34 34C34.5304 34 35.0391 33.7893 35.4142 33.4142C35.7893 33.0391 36 32.5304 36 32V12Z" fill="white"/>
</svg>
