<svg width="48" height="48" viewBox="0 0 48 48" fill="none" xmlns="http://www.w3.org/2000/svg">
<path d="M26 16V32C26 33.5913 25.3679 35.1174 24.2426 36.2426C23.1174 37.3679 21.5913 38 20 38H15.66C15.1882 39.335 14.2596 40.4602 13.0384 41.1767C11.8172 41.8932 10.382 42.155 8.98642 41.9156C7.59089 41.6763 6.32491 40.9513 5.41225 39.8687C4.49959 38.7862 3.99902 37.4159 3.99902 36C3.99902 34.5841 4.49959 33.2138 5.41225 32.1313C6.32491 31.0487 7.59089 30.3237 8.98642 30.0844C10.382 29.845 11.8172 30.1067 13.0384 30.8233C14.2596 31.5398 15.1882 32.665 15.66 34H20C20.5304 34 21.0391 33.7893 21.4142 33.4142C21.7893 33.0391 22 32.5304 22 32V16C22 14.4087 22.6321 12.8826 23.7574 11.7574C24.8826 10.6321 26.4087 10 28 10H34V4L44 12L34 20V14H28C27.4696 14 26.9609 14.2107 26.5858 14.5858C26.2107 14.9609 26 15.4696 26 16Z" fill="white"/>
</svg>
