<svg width="32" height="32" viewBox="0 0 32 32" fill="none" xmlns="http://www.w3.org/2000/svg">
<mask id="path-1-inside-1_247_561" fill="white">
<path d="M16.7904 31.0107L16.7757 31.0134L16.6811 31.06L16.6544 31.0654L16.6357 31.06L16.5411 31.0134C16.5269 31.0089 16.5162 31.0111 16.5091 31.02L16.5037 31.0334L16.4811 31.604L16.4877 31.6307L16.5011 31.648L16.6397 31.7467L16.6597 31.752L16.6757 31.7467L16.8144 31.648L16.8304 31.6267L16.8357 31.604L16.8131 31.0347C16.8095 31.0205 16.802 31.0125 16.7904 31.0107ZM17.1437 30.86L17.1264 30.8627L16.8797 30.9867L16.8664 31L16.8624 31.0147L16.8864 31.588L16.8931 31.604L16.9037 31.6134L17.1717 31.7374C17.1886 31.7418 17.2015 31.7382 17.2104 31.7267L17.2157 31.708L17.1704 30.8894C17.166 30.8734 17.1571 30.8636 17.1437 30.86ZM16.1904 30.8627C16.1845 30.8591 16.1775 30.858 16.1708 30.8595C16.1641 30.861 16.1582 30.865 16.1544 30.8707L16.1464 30.8894L16.1011 31.708C16.102 31.724 16.1095 31.7347 16.1237 31.74L16.1437 31.7374L16.4117 31.6134L16.4251 31.6027L16.4304 31.588L16.4531 31.0147L16.4491 30.9987L16.4357 30.9854L16.1904 30.8627Z"/>
</mask>
<path d="M16.7904 31.0107L16.9425 30.0223L16.7766 29.9968L16.6115 30.0268L16.7904 31.0107ZM16.7757 31.0134L16.5968 30.0295L16.4591 30.0545L16.3336 30.1164L16.7757 31.0134ZM16.6811 31.06L16.8772 32.0406L17.0057 32.0149L17.1232 31.957L16.6811 31.06ZM16.6544 31.0654L16.3797 32.0269L16.6128 32.0935L16.8505 32.0459L16.6544 31.0654ZM16.6357 31.06L16.1936 31.957L16.2744 31.9968L16.361 32.0215L16.6357 31.06ZM16.5411 31.0134L16.9832 30.1164L16.9135 30.0821L16.8393 30.0589L16.5411 31.0134ZM16.5091 31.02L15.7282 30.3953L15.6356 30.5111L15.5806 30.6487L16.5091 31.02ZM16.5037 31.0334L15.5753 30.662L15.5114 30.8217L15.5045 30.9937L16.5037 31.0334ZM16.4811 31.604L15.4819 31.5643L15.4762 31.7075L15.5109 31.8466L16.4811 31.604ZM16.4877 31.6307L15.5176 31.8732L15.5681 32.0753L15.6951 32.2404L16.4877 31.6307ZM16.5011 31.648L15.7084 32.2577L15.7996 32.3762L15.9213 32.4628L16.5011 31.648ZM16.6397 31.7467L16.06 32.5615L16.2073 32.6663L16.3821 32.7129L16.6397 31.7467ZM16.6597 31.752L16.4021 32.7183L16.6917 32.7955L16.9759 32.7007L16.6597 31.752ZM16.6757 31.7467L16.9919 32.6954L17.1337 32.6481L17.2555 32.5615L16.6757 31.7467ZM16.8144 31.648L17.3942 32.4628L17.521 32.3726L17.6144 32.248L16.8144 31.648ZM16.8304 31.6267L17.6304 32.2267L17.7559 32.0593L17.8038 31.8557L16.8304 31.6267ZM16.8357 31.604L17.8092 31.833L17.8404 31.7004L17.8349 31.5642L16.8357 31.604ZM16.8131 31.0347L17.8123 30.9949L17.8082 30.892L17.7832 30.7921L16.8131 31.0347ZM17.1437 30.86L17.4014 29.8938L17.1989 29.8398L16.9918 29.8716L17.1437 30.86ZM17.1264 30.8627L16.9744 29.8743L16.8183 29.8983L16.6773 29.9692L17.1264 30.8627ZM16.8797 30.9867L16.4306 30.0932L16.2866 30.1656L16.1726 30.2796L16.8797 30.9867ZM16.8664 31L16.1593 30.2929L15.9715 30.4807L15.9016 30.737L16.8664 31ZM16.8624 31.0147L15.8976 30.7516L15.8568 30.9014L15.8633 31.0565L16.8624 31.0147ZM16.8864 31.588L15.8873 31.6298L15.8947 31.808L15.9633 31.9727L16.8864 31.588ZM16.8931 31.604L15.97 31.9887L16.0595 32.2034L16.2346 32.3566L16.8931 31.604ZM16.9037 31.6134L16.2453 32.3659L16.3534 32.4606L16.4838 32.5209L16.9037 31.6134ZM17.1717 31.7374L16.7518 32.6449L16.8319 32.682L16.9172 32.7044L17.1717 31.7374ZM17.2104 31.7267L18.003 32.3364L18.1195 32.185L18.1719 32.0014L17.2104 31.7267ZM17.2157 31.708L18.1773 31.9827L18.2235 31.8208L18.2142 31.6527L17.2157 31.708ZM17.1704 30.8894L18.1689 30.8341L18.1629 30.726L18.1339 30.6217L17.1704 30.8894ZM16.1904 30.8627L15.6721 31.7179L15.7069 31.7389L15.7432 31.7571L16.1904 30.8627ZM16.1544 30.8707L15.3227 30.3155L15.2716 30.3921L15.2353 30.4767L16.1544 30.8707ZM16.1464 30.8894L15.2273 30.4954L15.1577 30.6577L15.1479 30.8341L16.1464 30.8894ZM16.1011 31.708L15.1026 31.6527L15.0995 31.7081L15.1026 31.7635L16.1011 31.708ZM16.1237 31.74L15.7726 32.6763L16.0074 32.7644L16.256 32.7312L16.1237 31.74ZM16.1437 31.7374L16.276 32.7286L16.4261 32.7085L16.5637 32.6449L16.1437 31.7374ZM16.4117 31.6134L16.8317 32.5209L16.9417 32.47L17.0364 32.3942L16.4117 31.6134ZM16.4251 31.6027L17.0497 32.3836L17.2689 32.2082L17.3649 31.9444L16.4251 31.6027ZM16.4304 31.588L17.3702 31.9297L17.4235 31.7833L17.4296 31.6275L16.4304 31.588ZM16.4531 31.0147L17.4523 31.0542L17.458 30.9111L17.4232 30.7721L16.4531 31.0147ZM16.4491 30.9987L17.4192 30.7561L17.352 30.4874L17.1562 30.2916L16.4491 30.9987ZM16.4357 30.9854L17.1428 30.2782L17.0281 30.1635L16.883 30.0909L16.4357 30.9854ZM16.7904 31.0107L16.6115 30.0268L16.5968 30.0295L16.7757 31.0134L16.9547 31.9972L16.9694 31.9945L16.7904 31.0107ZM16.7757 31.0134L16.3336 30.1164L16.2389 30.1631L16.6811 31.06L17.1232 31.957L17.2179 31.9103L16.7757 31.0134ZM16.6811 31.06L16.485 30.0794L16.4583 30.0848L16.6544 31.0654L16.8505 32.0459L16.8772 32.0406L16.6811 31.06ZM16.6544 31.0654L16.9291 30.1038L16.9104 30.0985L16.6357 31.06L16.361 32.0215L16.3797 32.0269L16.6544 31.0654ZM16.6357 31.06L17.0779 30.1631L16.9832 30.1164L16.5411 31.0134L16.0989 31.9103L16.1936 31.957L16.6357 31.06ZM16.5411 31.0134L16.8393 30.0589C16.7268 30.0237 16.5407 29.9864 16.3185 30.0327C16.0747 30.0835 15.87 30.2181 15.7282 30.3953L16.5091 31.02L17.2899 31.6447C17.1553 31.8131 16.9594 31.9421 16.7263 31.9907C16.5148 32.0347 16.3412 31.9986 16.2428 31.9678L16.5411 31.0134ZM16.5091 31.02L15.5806 30.6487L15.5753 30.662L16.5037 31.0334L17.4322 31.4047L17.4376 31.3914L16.5091 31.02ZM16.5037 31.0334L15.5045 30.9937L15.4819 31.5643L16.4811 31.604L17.4803 31.6437L17.503 31.073L16.5037 31.0334ZM16.4811 31.604L15.5109 31.8466L15.5176 31.8732L16.4877 31.6307L17.4579 31.3882L17.4512 31.3615L16.4811 31.604ZM16.4877 31.6307L15.6951 32.2404L15.7084 32.2577L16.5011 31.648L17.2937 31.0383L17.2804 31.021L16.4877 31.6307ZM16.5011 31.648L15.9213 32.4628L16.06 32.5615L16.6397 31.7467L17.2195 30.9319L17.0808 30.8332L16.5011 31.648ZM16.6397 31.7467L16.3821 32.7129L16.4021 32.7183L16.6597 31.752L16.9174 30.7858L16.8974 30.7804L16.6397 31.7467ZM16.6597 31.752L16.9759 32.7007L16.9919 32.6954L16.6757 31.7467L16.3595 30.798L16.3435 30.8033L16.6597 31.752ZM16.6757 31.7467L17.2555 32.5615L17.3942 32.4628L16.8144 31.648L16.2347 30.8332L16.096 30.9319L16.6757 31.7467ZM16.8144 31.648L17.6144 32.248L17.6304 32.2267L16.8304 31.6267L16.0304 31.0267L16.0144 31.048L16.8144 31.648ZM16.8304 31.6267L17.8038 31.8557L17.8092 31.833L16.8357 31.604L15.8623 31.375L15.857 31.3977L16.8304 31.6267ZM16.8357 31.604L17.8349 31.5642L17.8123 30.9949L16.8131 31.0347L15.8139 31.0745L15.8365 31.6438L16.8357 31.604ZM16.8131 31.0347L17.7832 30.7921C17.7532 30.672 17.6861 30.4948 17.5318 30.3314C17.3653 30.1552 17.1534 30.0548 16.9425 30.0223L16.7904 31.0107L16.6384 31.9991C16.439 31.9684 16.2366 31.8729 16.0777 31.7046C15.931 31.5492 15.8694 31.3832 15.8429 31.2772L16.8131 31.0347ZM17.1437 30.86L16.9918 29.8716L16.9744 29.8743L17.1264 30.8627L17.2784 31.8511L17.2957 31.8484L17.1437 30.86ZM17.1264 30.8627L16.6773 29.9692L16.4306 30.0932L16.8797 30.9867L17.3289 31.8801L17.5756 31.7561L17.1264 30.8627ZM16.8797 30.9867L16.1726 30.2796L16.1593 30.2929L16.8664 31L17.5735 31.7071L17.5868 31.6938L16.8797 30.9867ZM16.8664 31L15.9016 30.737L15.8976 30.7516L16.8624 31.0147L17.8272 31.2778L17.8312 31.2631L16.8664 31ZM16.8624 31.0147L15.8633 31.0565L15.8873 31.6298L16.8864 31.588L17.8855 31.5462L17.8615 30.9729L16.8624 31.0147ZM16.8864 31.588L15.9633 31.9727L15.97 31.9887L16.8931 31.604L17.8161 31.2194L17.8095 31.2034L16.8864 31.588ZM16.8931 31.604L16.2346 32.3566L16.2453 32.3659L16.9037 31.6134L17.5622 30.8608L17.5516 30.8514L16.8931 31.604ZM16.9037 31.6134L16.4838 32.5209L16.7518 32.6449L17.1717 31.7374L17.5917 30.8298L17.3237 30.7058L16.9037 31.6134ZM17.1717 31.7374L16.9172 32.7044C17.0455 32.7382 17.2389 32.763 17.46 32.702C17.695 32.6372 17.8788 32.4979 18.003 32.3364L17.2104 31.7267L16.4178 31.117C16.5331 30.9671 16.706 30.8353 16.9282 30.774C17.1363 30.7166 17.3149 30.741 17.4262 30.7703L17.1717 31.7374ZM17.2104 31.7267L18.1719 32.0014L18.1773 31.9827L17.2157 31.708L16.2542 31.4333L16.2489 31.452L17.2104 31.7267ZM17.2157 31.708L18.2142 31.6527L18.1689 30.8341L17.1704 30.8894L16.1719 30.9446L16.2173 31.7633L17.2157 31.708ZM17.1704 30.8894L18.1339 30.6217C18.0573 30.3458 17.8318 30.0086 17.4014 29.8938L17.1437 30.86L16.8861 31.8263C16.7158 31.7808 16.5512 31.6865 16.4205 31.5427C16.2963 31.4061 16.236 31.2619 16.2069 31.157L17.1704 30.8894ZM16.1904 30.8627L16.7087 30.0075C16.4824 29.8703 16.2119 29.8259 15.9539 29.8833L16.1708 30.8595L16.3877 31.8356C16.1431 31.89 15.8867 31.8479 15.6721 31.7179L16.1904 30.8627ZM16.1708 30.8595L15.9539 29.8833C15.6957 29.9406 15.4696 30.0954 15.3227 30.3155L16.1544 30.8707L16.9861 31.4259C16.8468 31.6345 16.6325 31.7813 16.3877 31.8356L16.1708 30.8595ZM16.1544 30.8707L15.2353 30.4767L15.2273 30.4954L16.1464 30.8894L17.0655 31.2833L17.0735 31.2646L16.1544 30.8707ZM16.1464 30.8894L15.1479 30.8341L15.1026 31.6527L16.1011 31.708L17.0995 31.7633L17.1449 30.9446L16.1464 30.8894ZM16.1011 31.708L15.1026 31.7635C15.1111 31.9168 15.1566 32.1158 15.2914 32.306C15.4286 32.4998 15.6093 32.6151 15.7726 32.6763L16.1237 31.74L16.4749 30.8037C16.6239 30.8596 16.7937 30.9669 16.9234 31.15C17.0507 31.3296 17.0919 31.5152 17.0995 31.6526L16.1011 31.708ZM16.1237 31.74L16.256 32.7312L16.276 32.7286L16.1437 31.7374L16.0115 30.7461L15.9915 30.7488L16.1237 31.74ZM16.1437 31.7374L16.5637 32.6449L16.8317 32.5209L16.4117 31.6134L15.9918 30.7058L15.7238 30.8298L16.1437 31.7374ZM16.4117 31.6134L17.0364 32.3942L17.0497 32.3836L16.4251 31.6027L15.8004 30.8218L15.7871 30.8325L16.4117 31.6134ZM16.4251 31.6027L17.3649 31.9444L17.3702 31.9297L16.4304 31.588L15.4906 31.2463L15.4853 31.261L16.4251 31.6027ZM16.4304 31.588L17.4296 31.6275L17.4523 31.0542L16.4531 31.0147L15.4539 30.9752L15.4312 31.5485L16.4304 31.588ZM16.4531 31.0147L17.4232 30.7721L17.4192 30.7561L16.4491 30.9987L15.4789 31.2413L15.4829 31.2573L16.4531 31.0147ZM16.4491 30.9987L17.1562 30.2916L17.1428 30.2782L16.4357 30.9854L15.7286 31.6925L15.742 31.7058L16.4491 30.9987ZM16.4357 30.9854L16.883 30.0909L16.6376 29.9683L16.1904 30.8627L15.7432 31.7571L15.9885 31.8798L16.4357 30.9854Z" fill="white" mask="url(#path-1-inside-1_247_561)"/>
<mask id="path-3-inside-2_247_561" fill="white">
<path d="M9.14256 3.26001C10.8266 4.48801 12.1012 6.21335 13.1866 7.79868L14.0372 9.04935C14.3014 9.43543 14.4223 9.90172 14.3789 10.3675C14.3356 10.8333 14.1308 11.2693 13.7999 11.6L11.9919 13.408L12.1826 13.8133C12.6492 14.7587 13.4546 16.12 14.6666 17.3333C15.5048 18.1561 16.4481 18.8644 17.4719 19.44L17.9612 19.7027L18.3972 19.9187L18.5919 20.008L20.3986 18.2C20.7303 17.868 21.1683 17.6632 21.6358 17.6215C22.1033 17.5798 22.5706 17.7039 22.9559 17.972L24.3079 18.9093C25.8439 19.9893 27.4479 21.22 28.6946 22.8173C28.9101 23.0946 29.0471 23.4246 29.0915 23.7729C29.1358 24.1212 29.0858 24.475 28.9466 24.7973C27.8306 27.4013 25.0066 29.6187 22.0692 29.5093L21.6692 29.488L21.3586 29.4613L21.0146 29.4213L20.6399 29.3707L20.2332 29.3027L19.7986 29.2173L19.3372 29.1147L18.8492 28.9893L18.3359 28.8427L17.7999 28.6693C15.3386 27.8347 12.2146 26.1947 9.00923 22.9893C5.8039 19.784 4.16523 16.6613 3.33056 14.2L3.15723 13.664L3.01056 13.1507L2.88523 12.6627L2.78123 12.2013C2.75123 12.0569 2.72323 11.9119 2.69723 11.7667L2.63056 11.36L2.57723 10.9853L2.53856 10.6413L2.5119 10.3307L2.49056 9.93068C2.38256 7.00268 4.6239 4.15868 7.2159 3.04801C7.52787 2.9133 7.8695 2.86201 8.20727 2.89918C8.54504 2.93635 8.86735 3.06069 9.14256 3.26001ZM7.90656 5.67068C6.47723 6.41735 5.09323 8.12401 5.1559 9.83201L5.18256 10.2693L5.2119 10.5427L5.25056 10.8493L5.3039 11.1867L5.3719 11.556L5.45856 11.9533L5.56523 12.38L5.69323 12.832L5.84523 13.3093C5.90123 13.472 5.96079 13.6387 6.0239 13.8093L6.22923 14.332L6.4639 14.8747C7.30123 16.7173 8.66656 18.8747 10.8972 21.104C13.1266 23.3333 15.2839 24.7 17.1266 25.5373L17.6692 25.772L18.1919 25.9773C18.3626 26.0413 18.5292 26.1009 18.6919 26.156L19.1692 26.308L19.6226 26.436L20.0479 26.5427L20.4452 26.6293L20.8146 26.6973L21.1532 26.7507L21.4599 26.7907L21.7319 26.8173L22.1692 26.844C23.8546 26.9067 25.5746 25.5307 26.3186 24.12C25.3692 23.0067 24.1906 22.0933 22.8906 21.1733L21.8932 20.4787L21.6399 20.744L21.0986 21.3347L20.8119 21.636C20.0306 22.432 19.1186 23.108 18.0252 22.6667L17.7239 22.54L17.3559 22.3747L17.1506 22.2773L16.6999 22.052L16.2052 21.7853C14.9546 21.0869 13.8034 20.2236 12.7826 19.2187C11.7777 18.1978 10.9144 17.0467 10.2159 15.796L9.94923 15.3027L9.72256 14.8507L9.46123 14.2773L9.33323 13.9733C8.91856 12.948 9.48923 12.0827 10.2186 11.3333L10.5172 11.04L11.2599 10.356L11.5266 10.1027L10.8959 9.17868C9.95856 7.81868 9.04256 6.59201 7.90523 5.66935L7.90656 5.67068ZM19.9906 8.05335L20.1452 8.07068C21.1158 8.24187 22.0072 8.71594 22.6918 9.42492C23.3763 10.1339 23.8188 11.0414 23.9559 12.0173C24.0048 12.3549 23.9224 12.6984 23.7258 12.9771C23.5291 13.2558 23.2331 13.4485 22.8987 13.5156C22.5643 13.5828 22.2169 13.5192 21.9279 13.3379C21.6389 13.1567 21.4304 12.8716 21.3452 12.5413L21.3146 12.388C21.2609 12.0055 21.0976 11.6467 20.8445 11.3549C20.5913 11.0632 20.2591 10.851 19.8879 10.744L19.6812 10.6973C19.3464 10.638 19.0469 10.453 18.844 10.1802C18.6411 9.90731 18.5501 9.56726 18.5896 9.22954C18.6291 8.89182 18.7962 8.58196 19.0566 8.36332C19.317 8.14469 19.6511 8.0338 19.9906 8.05335ZM19.9999 4.00001C22.1216 4.00001 24.1565 4.84287 25.6568 6.34316C27.157 7.84345 27.9999 9.87828 27.9999 12C27.9995 12.3399 27.8694 12.6667 27.6361 12.9138C27.4028 13.161 27.084 13.3097 26.7447 13.3296C26.4054 13.3495 26.0714 13.2391 25.8108 13.021C25.5502 12.8029 25.3827 12.4935 25.3426 12.156L25.3332 12C25.3331 10.6461 24.818 9.3429 23.8925 8.35472C22.967 7.36655 21.7002 6.76736 20.3492 6.67868L19.9999 6.66668C19.6463 6.66668 19.3071 6.5262 19.0571 6.27615C18.807 6.02611 18.6666 5.68697 18.6666 5.33335C18.6666 4.97972 18.807 4.64059 19.0571 4.39054C19.3071 4.14049 19.6463 4.00001 19.9999 4.00001Z"/>
</mask>
<path d="M9.14256 3.26001C10.8266 4.48801 12.1012 6.21335 13.1866 7.79868L14.0372 9.04935C14.3014 9.43543 14.4223 9.90172 14.3789 10.3675C14.3356 10.8333 14.1308 11.2693 13.7999 11.6L11.9919 13.408L12.1826 13.8133C12.6492 14.7587 13.4546 16.12 14.6666 17.3333C15.5048 18.1561 16.4481 18.8644 17.4719 19.44L17.9612 19.7027L18.3972 19.9187L18.5919 20.008L20.3986 18.2C20.7303 17.868 21.1683 17.6632 21.6358 17.6215C22.1033 17.5798 22.5706 17.7039 22.9559 17.972L24.3079 18.9093C25.8439 19.9893 27.4479 21.22 28.6946 22.8173C28.9101 23.0946 29.0471 23.4246 29.0915 23.7729C29.1358 24.1212 29.0858 24.475 28.9466 24.7973C27.8306 27.4013 25.0066 29.6187 22.0692 29.5093L21.6692 29.488L21.3586 29.4613L21.0146 29.4213L20.6399 29.3707L20.2332 29.3027L19.7986 29.2173L19.3372 29.1147L18.8492 28.9893L18.3359 28.8427L17.7999 28.6693C15.3386 27.8347 12.2146 26.1947 9.00923 22.9893C5.8039 19.784 4.16523 16.6613 3.33056 14.2L3.15723 13.664L3.01056 13.1507L2.88523 12.6627L2.78123 12.2013C2.75123 12.0569 2.72323 11.9119 2.69723 11.7667L2.63056 11.36L2.57723 10.9853L2.53856 10.6413L2.5119 10.3307L2.49056 9.93068C2.38256 7.00268 4.6239 4.15868 7.2159 3.04801C7.52787 2.9133 7.8695 2.86201 8.20727 2.89918C8.54504 2.93635 8.86735 3.06069 9.14256 3.26001ZM7.90656 5.67068C6.47723 6.41735 5.09323 8.12401 5.1559 9.83201L5.18256 10.2693L5.2119 10.5427L5.25056 10.8493L5.3039 11.1867L5.3719 11.556L5.45856 11.9533L5.56523 12.38L5.69323 12.832L5.84523 13.3093C5.90123 13.472 5.96079 13.6387 6.0239 13.8093L6.22923 14.332L6.4639 14.8747C7.30123 16.7173 8.66656 18.8747 10.8972 21.104C13.1266 23.3333 15.2839 24.7 17.1266 25.5373L17.6692 25.772L18.1919 25.9773C18.3626 26.0413 18.5292 26.1009 18.6919 26.156L19.1692 26.308L19.6226 26.436L20.0479 26.5427L20.4452 26.6293L20.8146 26.6973L21.1532 26.7507L21.4599 26.7907L21.7319 26.8173L22.1692 26.844C23.8546 26.9067 25.5746 25.5307 26.3186 24.12C25.3692 23.0067 24.1906 22.0933 22.8906 21.1733L21.8932 20.4787L21.6399 20.744L21.0986 21.3347L20.8119 21.636C20.0306 22.432 19.1186 23.108 18.0252 22.6667L17.7239 22.54L17.3559 22.3747L17.1506 22.2773L16.6999 22.052L16.2052 21.7853C14.9546 21.0869 13.8034 20.2236 12.7826 19.2187C11.7777 18.1978 10.9144 17.0467 10.2159 15.796L9.94923 15.3027L9.72256 14.8507L9.46123 14.2773L9.33323 13.9733C8.91856 12.948 9.48923 12.0827 10.2186 11.3333L10.5172 11.04L11.2599 10.356L11.5266 10.1027L10.8959 9.17868C9.95856 7.81868 9.04256 6.59201 7.90523 5.66935L7.90656 5.67068ZM19.9906 8.05335L20.1452 8.07068C21.1158 8.24187 22.0072 8.71594 22.6918 9.42492C23.3763 10.1339 23.8188 11.0414 23.9559 12.0173C24.0048 12.3549 23.9224 12.6984 23.7258 12.9771C23.5291 13.2558 23.2331 13.4485 22.8987 13.5156C22.5643 13.5828 22.2169 13.5192 21.9279 13.3379C21.6389 13.1567 21.4304 12.8716 21.3452 12.5413L21.3146 12.388C21.2609 12.0055 21.0976 11.6467 20.8445 11.3549C20.5913 11.0632 20.2591 10.851 19.8879 10.744L19.6812 10.6973C19.3464 10.638 19.0469 10.453 18.844 10.1802C18.6411 9.90731 18.5501 9.56726 18.5896 9.22954C18.6291 8.89182 18.7962 8.58196 19.0566 8.36332C19.317 8.14469 19.6511 8.0338 19.9906 8.05335ZM19.9999 4.00001C22.1216 4.00001 24.1565 4.84287 25.6568 6.34316C27.157 7.84345 27.9999 9.87828 27.9999 12C27.9995 12.3399 27.8694 12.6667 27.6361 12.9138C27.4028 13.161 27.084 13.3097 26.7447 13.3296C26.4054 13.3495 26.0714 13.2391 25.8108 13.021C25.5502 12.8029 25.3827 12.4935 25.3426 12.156L25.3332 12C25.3331 10.6461 24.818 9.3429 23.8925 8.35472C22.967 7.36655 21.7002 6.76736 20.3492 6.67868L19.9999 6.66668C19.6463 6.66668 19.3071 6.5262 19.0571 6.27615C18.807 6.02611 18.6666 5.68697 18.6666 5.33335C18.6666 4.97972 18.807 4.64059 19.0571 4.39054C19.3071 4.14049 19.6463 4.00001 19.9999 4.00001Z" fill="white" stroke="white" stroke-width="2" mask="url(#path-3-inside-2_247_561)"/>
</svg>
