<svg width="32" height="32" viewBox="0 0 32 32" fill="none" xmlns="http://www.w3.org/2000/svg">
<path d="M16 4C9.37301 4 4.00001 9.373 4.00001 16C4.00001 18.165 4.57201 20.193 5.57301 21.945C5.63918 22.0606 5.68157 22.1883 5.69772 22.3205C5.71386 22.4527 5.70342 22.5869 5.66701 22.715L4.22801 27.774L9.28901 26.334C9.41715 26.2976 9.55127 26.2872 9.6835 26.3033C9.81573 26.3194 9.9434 26.3618 10.059 26.428C11.8683 27.4614 13.9164 28.0033 16 28C22.628 28 28 22.627 28 16C28 9.373 22.628 4 16 4ZM2.00001 16C2.00001 8.268 8.26801 2 16 2C23.732 2 30 8.268 30 16C30 23.732 23.732 30 16 30C13.632 30 11.398 29.411 9.44001 28.371L3.91201 29.943C3.65509 30.0158 3.38339 30.0187 3.12496 29.9515C2.86654 29.8842 2.63076 29.7491 2.44198 29.5602C2.25321 29.3714 2.11828 29.1355 2.05113 28.877C1.98398 28.6186 1.98704 28.3469 2.06001 28.09L3.63201 22.563C2.55755 20.5425 1.99706 18.2885 2.00001 16ZM10 13C10 12.7348 10.1054 12.4804 10.2929 12.2929C10.4804 12.1054 10.7348 12 11 12H21C21.2652 12 21.5196 12.1054 21.7071 12.2929C21.8947 12.4804 22 12.7348 22 13C22 13.2652 21.8947 13.5196 21.7071 13.7071C21.5196 13.8946 21.2652 14 21 14H11C10.7348 14 10.4804 13.8946 10.2929 13.7071C10.1054 13.5196 10 13.2652 10 13ZM11 18C10.7348 18 10.4804 18.1054 10.2929 18.2929C10.1054 18.4804 10 18.7348 10 19C10 19.2652 10.1054 19.5196 10.2929 19.7071C10.4804 19.8946 10.7348 20 11 20H17C17.2652 20 17.5196 19.8946 17.7071 19.7071C17.8947 19.5196 18 19.2652 18 19C18 18.7348 17.8947 18.4804 17.7071 18.2929C17.5196 18.1054 17.2652 18 17 18H11Z" fill="white" stroke="white"/>
</svg>
