<svg width="30" height="30" viewBox="0 0 30 30" fill="none" xmlns="http://www.w3.org/2000/svg">
<path d="M24.0872 6.66555C22.4247 5.89055 20.6247 5.32805 18.7497 5.00305C18.7167 5.00352 18.6852 5.017 18.6622 5.04055C18.4372 5.45305 18.1747 5.99055 17.9997 6.40305C16.0109 6.10324 13.9884 6.10324 11.9997 6.40305C11.8247 5.97805 11.5622 5.45305 11.3247 5.04055C11.3122 5.01555 11.2747 5.00305 11.2372 5.00305C9.36216 5.32805 7.57466 5.89055 5.89966 6.66555C5.88716 6.66555 5.87466 6.67805 5.86216 6.69055C2.46216 11.7781 1.52466 16.7281 1.98716 21.6281C1.98716 21.6531 1.99966 21.6781 2.02466 21.6906C4.27466 23.3406 6.43716 24.3406 8.57466 25.0031C8.61216 25.0156 8.64966 25.0031 8.66216 24.9781C9.16216 24.2906 9.61216 23.5656 9.99966 22.8031C10.0247 22.7531 9.99966 22.7031 9.94966 22.6906C9.23716 22.4156 8.56216 22.0906 7.89966 21.7156C7.84966 21.6906 7.84966 21.6156 7.88716 21.5781C8.02466 21.4781 8.16216 21.3656 8.29966 21.2656C8.32466 21.2406 8.36216 21.2406 8.38716 21.2531C12.6872 23.2156 17.3247 23.2156 21.5747 21.2531C21.5997 21.2406 21.6372 21.2406 21.6622 21.2656C21.7997 21.3781 21.9372 21.4781 22.0747 21.5906C22.1247 21.6281 22.1247 21.7031 22.0622 21.7281C21.4122 22.1156 20.7247 22.4281 20.0122 22.7031C19.9622 22.7156 19.9497 22.7781 19.9622 22.8156C20.3622 23.5781 20.8122 24.3031 21.2997 24.9906C21.3372 25.0031 21.3747 25.0156 21.4122 25.0031C23.5622 24.3406 25.7247 23.3406 27.9747 21.6906C27.9997 21.6781 28.0122 21.6531 28.0122 21.6281C28.5622 15.9656 27.0997 11.0531 24.1372 6.69055C24.1247 6.67805 24.1122 6.66555 24.0872 6.66555ZM10.6497 18.6406C9.36216 18.6406 8.28716 17.4531 8.28716 15.9906C8.28716 14.5281 9.33716 13.3406 10.6497 13.3406C11.9747 13.3406 13.0247 14.5406 13.0122 15.9906C13.0122 17.4531 11.9622 18.6406 10.6497 18.6406ZM19.3622 18.6406C18.0747 18.6406 16.9997 17.4531 16.9997 15.9906C16.9997 14.5281 18.0497 13.3406 19.3622 13.3406C20.6872 13.3406 21.7372 14.5406 21.7247 15.9906C21.7247 17.4531 20.6872 18.6406 19.3622 18.6406Z" fill="white"/>
</svg>
