<svg width="30" height="30" viewBox="0 0 30 30" fill="none" xmlns="http://www.w3.org/2000/svg">
<path d="M23.7485 3.74976C24.4116 3.74976 25.0475 4.01315 25.5163 4.48199C25.9851 4.95083 26.2485 5.58671 26.2485 6.24976V23.7498C26.2485 24.4128 25.9851 25.0487 25.5163 25.5175C25.0475 25.9864 24.4116 26.2498 23.7485 26.2498H6.24853C5.58549 26.2498 4.94961 25.9864 4.48077 25.5175C4.01193 25.0487 3.74854 24.4128 3.74854 23.7498V6.24976C3.74854 5.58671 4.01193 4.95083 4.48077 4.48199C4.94961 4.01315 5.58549 3.74976 6.24853 3.74976H23.7485ZM23.1235 23.1248V16.4998C23.1235 15.419 22.6942 14.3825 21.93 13.6183C21.1658 12.8541 20.1293 12.4248 19.0485 12.4248C17.986 12.4248 16.7485 13.0748 16.1485 14.0498V12.6623H12.661V23.1248H16.1485V16.9623C16.1485 15.9998 16.9235 15.2123 17.886 15.2123C18.3502 15.2123 18.7953 15.3966 19.1235 15.7248C19.4517 16.053 19.636 16.4981 19.636 16.9623V23.1248H23.1235ZM8.59854 10.6998C9.15549 10.6998 9.68963 10.4785 10.0835 10.0847C10.4773 9.69085 10.6985 9.15671 10.6985 8.59976C10.6985 7.43726 9.76103 6.48726 8.59854 6.48726C8.03827 6.48726 7.50094 6.70982 7.10477 7.10599C6.7086 7.50216 6.48603 8.03949 6.48603 8.59976C6.48603 9.76226 7.43603 10.6998 8.59854 10.6998ZM10.336 23.1248V12.6623H6.87353V23.1248H10.336Z" fill="white"/>
</svg>
