<svg width="30" height="30" viewBox="0 0 30 30" fill="none" xmlns="http://www.w3.org/2000/svg">
<path d="M25.0044 10.0031L15.0044 16.2531L5.00439 10.0031V7.50305L15.0044 13.7531L25.0044 7.50305M25.0044 5.00305H5.00439C3.61689 5.00305 2.50439 6.11555 2.50439 7.50305V22.503C2.50439 23.1661 2.76779 23.802 3.23663 24.2708C3.70547 24.7397 4.34135 25.003 5.00439 25.003H25.0044C25.6674 25.003 26.3033 24.7397 26.7722 24.2708C27.241 23.802 27.5044 23.1661 27.5044 22.503V7.50305C27.5044 6.84001 27.241 6.20413 26.7722 5.73528C26.3033 5.26644 25.6674 5.00305 25.0044 5.00305Z" fill="white"/>
</svg>
