<svg width="30" height="30" viewBox="0 0 30 30" fill="none" xmlns="http://www.w3.org/2000/svg">
<path d="M15.0044 2.50305C21.9082 2.50305 27.5044 8.0993 27.5044 15.0031C27.5044 21.9068 21.9082 27.5031 15.0044 27.5031C12.7954 27.5069 10.6251 26.9222 8.71691 25.8093L2.50941 27.5031L4.19941 21.2931C3.08561 19.3842 2.50054 17.2131 2.50441 15.0031C2.50441 8.0993 8.10067 2.50305 15.0044 2.50305ZM10.7444 9.12805L10.4944 9.13805C10.3328 9.14919 10.1748 9.19164 10.0294 9.26305C9.89388 9.33994 9.77012 9.43592 9.66191 9.54805C9.51191 9.6893 9.42691 9.8118 9.33566 9.93055C8.87332 10.5317 8.62438 11.2697 8.62816 12.0281C8.63066 12.6406 8.79066 13.2368 9.04066 13.7943C9.55191 14.9218 10.3932 16.1156 11.5032 17.2218C11.7707 17.4881 12.0332 17.7556 12.3157 18.0043C13.695 19.2186 15.3385 20.0943 17.1157 20.5618L17.8257 20.6706C18.0569 20.6831 18.2882 20.6656 18.5207 20.6543C18.8846 20.6351 19.24 20.5366 19.5619 20.3656C19.7255 20.281 19.8852 20.1892 20.0407 20.0906C20.0407 20.0906 20.0936 20.0547 20.1969 19.9781C20.3657 19.8531 20.4694 19.7643 20.6094 19.6181C20.7144 19.5097 20.8019 19.3839 20.8719 19.2406C20.9694 19.0368 21.0669 18.6481 21.1069 18.3243C21.1369 18.0768 21.1282 17.9418 21.1244 17.8581C21.1194 17.7243 21.0082 17.5856 20.8869 17.5268L20.1594 17.2006C20.1594 17.2006 19.0719 16.7268 18.4069 16.4243C18.3373 16.394 18.2628 16.3766 18.1869 16.3731C18.1014 16.3641 18.0149 16.3736 17.9334 16.401C17.8519 16.4284 17.7772 16.473 17.7144 16.5318C17.7082 16.5293 17.6244 16.6006 16.7207 17.6956C16.6688 17.7653 16.5973 17.8179 16.5154 17.8469C16.4335 17.8758 16.3448 17.8797 16.2607 17.8581C16.1792 17.8363 16.0994 17.8088 16.0219 17.7756C15.8669 17.7106 15.8132 17.6856 15.7069 17.6406C14.9893 17.3279 14.325 16.9049 13.7382 16.3868C13.5807 16.2493 13.4344 16.0993 13.2844 15.9543C12.7927 15.4833 12.3641 14.9505 12.0094 14.3693L11.9357 14.2506C11.8835 14.1703 11.8407 14.0843 11.8082 13.9943C11.7607 13.8106 11.8844 13.6631 11.8844 13.6631C11.8844 13.6631 12.1882 13.3306 12.3294 13.1506C12.4669 12.9756 12.5832 12.8056 12.6582 12.6843C12.8057 12.4468 12.8519 12.2031 12.7744 12.0143C12.4244 11.1593 12.0627 10.3089 11.6894 9.46305C11.6157 9.29555 11.3969 9.17555 11.1982 9.1518C11.1307 9.14347 11.0632 9.1368 10.9957 9.1318C10.8278 9.12218 10.6595 9.12385 10.4919 9.1368L10.7444 9.12805Z" fill="white"/>
</svg>
